<svg xmlns="http://www.w3.org/2000/svg" viewBox="0 0 1079.76 491.52"><defs><style>.cls-1{fill:#0d3f6a;}.cls-2{fill:#aebfcd;}.cls-3{fill:#f35a56;}</style></defs><g id="Capa_2" data-name="Capa 2"><g id="Capa_1-2" data-name="Capa 1"><path class="cls-1" d="M0,490.92V0H1079.74V490.92ZM693.8,75c2.67,2.41,5,4.37,7.12,6.5a3,3,0,0,0,3.62.7c5.12-1.79,10.29-3.48,15.46-5.14,3.61-1.16,6.4.3,7.42,3.92.63,2.22,1,4.51,1.54,6.77.21.88.15,1.6-.92,1.81-.85.18-.88.7-.72,1.44.74,3.43,1.45,6.87,2.16,10.31.14.67.36,1.3,1.25,1,1.22-.39,1.55.27,1.67,1.3.07.63.27,1.24.4,1.87q4.41,20.73,8.81,41.46c1,4.53,1.89,9.07,2.92,13.58.26,1.13,0,1.67-1.11,1.83-.4,0-.79.12-1.19.2l-60.81,11.27-58,10.74L560,196.27l-63.63,11.8-65.77,12.16q-34.29,6.36-68.58,12.72-33,6.12-66,12.2l-66.47,12.32-49.5,9.16c-1.87.34-1.86.37-1.9,2.33,0,.4,0,.8,0,1.2q0,28.05,0,56.09c0,3.18,0,3.17,3.09,2.48q50.29-11.18,100.61-22.36l124-27.54,124-27.56L643.65,226q55.94-12.39,111.87-24.74c1.17-.26,2.32-.58,3.5-.8.94-.17,1.19-.65,1-1.52-.15-.53-.24-1.09-.36-1.63q-8.73-40.62-17.48-81.24c-1-4.53-1.94-9.06-3-13.58-.26-1.2-.39-2.15,1.27-2.42,1.06-.17.6-1.16.47-1.8-.63-3.21-1.33-6.4-2-9.61-.2-1-.55-1.71-1.75-1.24-.84.33-1.19-.13-1.35-.84-.24-1.1-.42-2.2-.65-3.29a24.65,24.65,0,0,0-3.12-8.25,11.11,11.11,0,0,0-12.34-5.3c-2.82.55-5.64,1.12-8.46,1.69ZM861.05,210.18c-.87.14-1.82.29-2.75.47l-38.57,7.53c-3.92.77-7.84,1.59-11.77,2.3-1.15.21-1.74.66-1.62,1.86,0,.4,0,.8,0,1.2.09,11.18.2,22.36.26,33.54q.14,26.85.22,53.68a13.2,13.2,0,0,0,0,1.67c.22,1.4.9,1.9,2.32,1.76a11.38,11.38,0,0,0,1.42-.24q21.36-4.4,42.72-8.78,31.23-6.41,62.45-12.8c8.1-1.67,14.14-6,17.62-13.7a29.81,29.81,0,0,0,2.5-15.87c-1.12-10.42-6.52-17.41-16.24-21.17a57.67,57.67,0,0,0-10.86-2.91,38.82,38.82,0,0,1-9.24-2.47,7.58,7.58,0,0,1-4.72-6.16A10.74,10.74,0,0,1,900.66,219c6.16-3.28,12.36-3.47,18.41.45,2,1.34,2.1,1.37,4,0q5.74-4.14,11.44-8.32c1.69-1.24,1.73-1.36.51-3a20.25,20.25,0,0,0-2.22-2.5A23.2,23.2,0,0,0,922.36,200c-13.62-3.51-26.09-.88-37,7.85-8.82,7.06-12.65,16.45-11,27.8,1.44,9.8,6.82,16.3,16.42,19.15a63.41,63.41,0,0,0,8,1.78,39.78,39.78,0,0,1,9.92,2.66A10.1,10.1,0,0,1,914,272.58a4,4,0,0,1-3.16,2.62c-1.57.28-3.13.63-4.7.94q-37.26,7.35-74.54,14.67a19.25,19.25,0,0,1-5.26.77c-.1-5.88-.21-11.62-.28-17.35,0-2.43,0-2.42,2.41-2.88l29.63-5.79c1.89-.37,1.91-.38,1.92-2.31,0-4.07,0-8.14,0-12.22,0-3.73,0-3.71-3.68-3q-14,2.76-28,5.49c-2.27.44-2.35.36-2.36-1.87q0-6.71,0-13.42c0-2.37,0-2.37,2.45-2.83l.23,0q15.41-3,30.81-6c2.09-.41,2.1-.44,2.1-2.59q0-7.42,0-14.86A2.3,2.3,0,0,0,861.05,210.18Zm-479.36,124a4,4,0,0,1,1.08,2q7.58,19.55,15.1,39.11c2.27,5.88,4.56,11.76,6.8,17.66.43,1.13.88,1.64,2.26,1.29,3.71-.94,7.47-1.72,11.23-2.49,1-.2,1.61-.58,1.79-1.6a11.46,11.46,0,0,1,.41-1.38L440,323.4a4.41,4.41,0,0,1,1.23-2.42c.29,22,.57,43.65.86,65.52l18.76-4.12a1.11,1.11,0,0,0,1-1.18c0-.56,0-1.11,0-1.67q-.46-24.43-.95-48.88-.34-18.93-.67-37.85c0-2.66-.05-2.66-2.69-2.07a2,2,0,0,1-.23.06c-8.27,1.82-16.53,3.69-24.82,5.42a3.35,3.35,0,0,0-3,2.77q-8.27,29.64-16.68,59.24c-.21.71-.48,1.4-.81,2.35a7.36,7.36,0,0,1-1.19-2.39l-19.17-50.62c-.81-2.14-.82-2.16-3.05-1.68q-12.17,2.65-24.34,5.34c-1.73.38-1.76.42-1.72,2.22.21,10.62.46,21.24.67,31.86q.56,28,1.08,56.07c0,.67-.22,1.43.56,2.1,5.69-1.24,11.46-2.5,17.24-3.73,1.19-.26,1.15-1.05,1.12-2q-.74-25.86-1.42-51.74C381.6,342.11,381.69,338.2,381.69,334.16ZM775,277.31c1.11-.67,2.28-1.32,3.4-2.05,9-5.86,13.48-14,12.46-24.9-1-10.58-6.93-17.81-16.84-20.18a35.67,35.67,0,0,0-15-.27c-10,1.89-19.9,4-29.83,6-3,.62-2.77.09-2.69,3.3q.69,28.62,1.42,57.24c.25,10.14.45,20.28.69,30.42.08,3.19.11,3.19,3.15,2.57l14.56-3c2-.41,2-.42,2-2.48q-.37-14.73-.77-29.46c-.06-2.47-.15-5-.28-7.42-.07-1.13.23-1.78,1.49-1.95a23.16,23.16,0,0,0,4.45-.93c1.68-.57,2.56,0,3.5,1.41,10.84,16,21.85,31.9,32.29,48.18.69,1.07,1.33,2.17,1.93,3.3A33.29,33.29,0,0,0,812,354.33c8.69,2.48,17.41,2,26.08-.08,17-4.05,28.61-14.56,35.71-30.3a12.13,12.13,0,0,0,1.31-5.25,4.43,4.43,0,0,0-2.45.18c-5.8,1.14-11.58,2.35-17.39,3.47a5.55,5.55,0,0,0-3.51,2.13c-5.61,6.86-12.5,11.67-21.66,12.27-7.38.49-13.63-1.45-18-8.08-8.05-12.2-16.72-24-25.61-35.59-3.44-4.51-6.82-9.07-10.21-13.61A4.82,4.82,0,0,1,775,277.31ZM634.22,301.77h0q.25,12.47.51,24.91c.12,6.47.18,12.94.31,19.41.05,2.14.17,2.18,2.24,1.73L663.5,342c5.22-1.15,10.5-2.11,15.52-4,13.71-5.25,24.34-14,30.43-27.57,5.68-12.66,5.9-25.73,1.75-38.83-3.53-11.14-11.19-18.38-22.32-21.91a40.82,40.82,0,0,0-20.4-1.05c-11.12,2.18-22.18,4.73-33.26,7.15-1.82.4-1.81.45-1.81,2.39,0,.32,0,.64,0,1Q633.82,280.46,634.22,301.77ZM350.59,362.92a55.94,55.94,0,0,0-3.17-18.79c-4.53-12-12.84-19.81-25.46-22.76a48.84,48.84,0,0,0-19.75-.17c-16.06,2.83-28.58,10.95-36.55,25.25-8.09,14.51-8.82,29.85-3.09,45.32,4.33,11.68,12.91,19,25.13,21.79a50,50,0,0,0,19.76.18c13.86-2.35,25.26-8.78,33.56-20.25C347.6,384.39,350.49,374.08,350.59,362.92Zm186.24,6.29c.89-.09,1.37-.08,1.82-.18,6.47-1.44,12.94-2.92,19.42-4.3a3,3,0,0,0,2.43-2.24c1.82-5.45,3.81-10.84,5.59-16.31a3.27,3.27,0,0,1,2.79-2.46c9.6-2.07,19.19-4.23,28.78-6.35,2.21-.49,2.21-.49,3,1.71,1.62,4.42,3.29,8.83,4.83,13.28.43,1.25,1,1.58,2.28,1.28,6-1.39,12-2.7,18-4.07,1.55-.35,1.54-.4,1-1.88-.13-.37-.28-.74-.43-1.12q-3.92-10.15-7.84-20.33Q606.87,296,595.16,265.7c-.71-1.85-.37-2.31-3.06-1.67-5,1.19-10,2.36-15,3.3a4.06,4.06,0,0,0-3.44,3Q556.46,316.71,539.11,363C538.38,365,537.68,366.9,536.83,369.21ZM810.08,126.37a5.58,5.58,0,0,1-2-1.77c-4.57-5.13-9.15-10.26-13.68-15.42s-10.26-7-17.06-5.44c-9.82,2.22-19.66,4.32-29.49,6.47-2.53.55-2.53.55-2,3.09a2,2,0,0,1,.06.23l8,36.72q3.41,15.56,6.79,31.11c.54,2.51.55,2.5,3.14,1.94,4.29-.93,8.59-1.84,12.88-2.79,1.93-.43,1.9-.46,2.13-2.45a31,31,0,0,1,8.7-18.76c6.6-6.75,14.85-9.52,24.06-9.51,6.29,0,12,2,16.38,6.75a23.23,23.23,0,0,1,5.29,9.54c.59,2,.62,2,2.65,1.55l8.89-1.94,8-1.74c2.52-.54,2.52-.54,1.78-2.86a2.09,2.09,0,0,1-.08-.23c-3.75-11.37-8-22.55-12.5-33.67a4.89,4.89,0,0,0-5.44-3.31c-1.67.15-3.34.39-5,.56-5.49.57-11,1.11-16.46,1.71-1.18.12-1.73-.25-2-1.44-.51-2.66-1.12-5.3-1.7-7.95-.31-1.41-.59-2.82-1-4.2a1.5,1.5,0,0,0-1.83-1.17,1.58,1.58,0,0,0-1.34,1.94c.13,1,.39,1.88.59,2.81C808.59,119.47,809.31,122.79,810.08,126.37ZM517.18,279.83a41.73,41.73,0,0,0-6.21.43c-10.69,1.92-21.22,4.61-31.84,6.85-1.06.22-1.55.67-1.42,1.76.05.47,0,.95,0,1.43q.52,28,1.06,56,.29,15.69.58,31.37c0,2.24.06,2.25,2.31,1.75q7.72-1.71,15.43-3.44c2.36-.53,2.36-.54,2.32-2.91q-.24-15.19-.47-30.4c0-2.32,0-2.32,2.19-2.82,3.51-.78,7-1.51,10.51-2.37,6.79-1.67,13.3-4,19.05-8.14a27.33,27.33,0,0,0,10.87-14.76,32.93,32.93,0,0,0,0-17.51c-1.95-7.86-6.63-13.32-14.43-15.92A29,29,0,0,0,517.18,279.83ZM177.69,387.73c0,8.79,1.33,16.2,3.68,21.73,5,11.9,13.75,19.55,26.67,21.6,13.73,2.17,26.35-1.05,37.73-9a40.17,40.17,0,0,0,10.31-10.92c1.17-1.77,1.17-1.79-.6-3.18q-3.94-3.13-7.91-6.23l-2.64-2.07c-1.57-1.24-1.64-1.63-2.8.38a16.42,16.42,0,0,1-1.24,1.76,25.89,25.89,0,0,1-15.19,9.79c-11.43,2.59-21.25-2.92-24.87-14.05a33.56,33.56,0,0,1-.61-18.45c2-8.26,6.09-15.22,13.56-19.52,8.34-4.81,16.89-5.83,25.11.51,1.09.84,1.49.29,2.07-.48,3.37-4.57,6.77-9.11,10.14-13.67,1-1.38,1-1.43-.32-2.45A29.15,29.15,0,0,0,238.37,338a48.61,48.61,0,0,0-38.13,8C185,356.49,178.22,371.61,177.69,387.73ZM411.05,172.54c-.06-5.35-.35-8.93-1.29-12.42-3.1-11.59-10.35-18.84-22.36-20.9a39,39,0,0,0-13.59.29c-11.77,2.11-20.94,8.12-26.94,18.48-6.2,10.7-7,22.13-3.1,33.73,3.38,10,10.67,15.9,21.08,17.68a39.75,39.75,0,0,0,23.66-3.12C403.58,199.33,410.39,187,411.05,172.54Zm24.67,24.82a37.19,37.19,0,0,0,19-5.36,22.21,22.21,0,0,0,9-10,18.51,18.51,0,0,0-9.95-25.21,43.15,43.15,0,0,0-9.23-2.5,28.29,28.29,0,0,1-6.93-1.85,5.42,5.42,0,0,1-3.46-5.26c0-3.47,1.88-5.75,4.78-7.14,4.8-2.28,9.6-2.27,14.09.88,1,.7,1.55.73,2.31-.26,2.24-2.91,4.56-5.76,6.82-8.66.95-1.22.93-1.26-.37-2.23a17.25,17.25,0,0,0-4.42-2.36,30.35,30.35,0,0,0-16.29-1.32c-6.44,1.17-12.22,3.73-16.83,8.51a19.82,19.82,0,0,0-5.79,15.45c.46,7.84,4.79,13.38,12.32,15.6,1.75.51,3.56.87,5.37,1.21a37,37,0,0,1,8.78,2.29,7,7,0,0,1,1.73,11.87,10.39,10.39,0,0,1-3.74,2.09c-5.86,1.92-11.36,1.23-16.34-2.5-.91-.68-1.36-.75-2.11.15-2.51,3-5.11,5.93-7.65,8.91-1.05,1.24-1,1.29.17,2.25a21.94,21.94,0,0,0,4.52,2.69C425.52,196.47,429.75,197.15,435.72,197.36Zm-135,27.82c1-.17,1.92-.31,2.84-.5l13.62-2.75q10.92-2.19,21.85-4.38c2.26-.45,2.27-.46,2.28-2.75,0-3.19,0-6.38,0-9.58,0-2.43,0-2.5-2.3-2.06-6.83,1.28-13.68,2.43-20.52,3.65-2.71.48-2.71.5-2.71-2.33q0-21.69,0-43.36c0-2.8,0-5.59-.05-8.39,0-1.67-.06-1.69-1.79-1.36-3.53.68-7.07,1.32-10.57,2.1-3.33.75-3-.11-3,3.78,0,1,0,2.08,0,3.12q0,30.3.05,60.61A13.93,13.93,0,0,0,300.75,225.18Zm481.86-44.33a23.58,23.58,0,0,0,.64,6.05c1.72,7.7,6,13.41,13.87,15.2,9.64,2.19,18.46,0,25.8-6.79,8.88-8.23,10.33-21.81,5.75-31.64a17.71,17.71,0,0,0-13.54-10.33,27.28,27.28,0,0,0-9.06,0C792.13,155.42,782.6,166.43,782.61,180.85Zm51.39,2a38.54,38.54,0,0,0,5.68-1.08q8.19-1.75,16.38-3.54c1.93-.42,2.05-.62,2-2.57a21.15,21.15,0,0,0-.84-5.18c-.45-1.79-.48-1.8-2.22-1.44l-7.72,1.67-11,2.39c-.85.19-1.78.25-1.72,1.52A39.62,39.62,0,0,1,834,182.84ZM781.19,194.5a35.43,35.43,0,0,1-2-7.41c-.13-1.12-.61-1.43-1.76-1.17-4.51,1-9,2-13.56,3-1,.2-1.4.57-1.15,1.61.5,2.1.94,4.2,1.38,6.31.2,1,.64,1.35,1.67,1.12C770.8,196.77,775.85,195.67,781.19,194.5Z"/><path class="cls-2" d="M0,490.92H1079.74c-.11.15.24.5-.24.48-.64,0-1.28,0-1.92,0q-537.72,0-1075.42,0C1.46,491.37.53,491.92,0,490.92Z"/><path class="cls-3" d="M693.8,75l17.46-3.52c2.82-.57,5.64-1.14,8.46-1.69a11.11,11.11,0,0,1,12.34,5.3,24.65,24.65,0,0,1,3.12,8.25c.23,1.09.41,2.19.65,3.29.16.71.51,1.17,1.35.84,1.2-.47,1.55.27,1.75,1.24.66,3.21,1.36,6.4,2,9.61.13.64.59,1.63-.47,1.8-1.66.27-1.53,1.22-1.27,2.42,1,4.52,2,9,3,13.58q8.75,40.62,17.48,81.24c.12.54.21,1.1.36,1.63.24.87,0,1.35-1,1.52-1.18.22-2.33.54-3.5.8Q699.59,213.66,643.65,226L529.93,251.27l-124,27.56-124,27.54q-50.31,11.16-100.61,22.36c-3.09.69-3.09.7-3.09-2.48q0-28,0-56.09c0-.4,0-.8,0-1.2,0-2,0-2,1.9-2.33l49.5-9.16,66.47-12.32q33-6.1,66-12.2,34.29-6.34,68.58-12.72l65.77-12.16L560,196.27l63.41-11.72,58-10.74,60.81-11.27c.4-.08.79-.15,1.19-.2,1.12-.16,1.37-.7,1.11-1.83-1-4.51-1.95-9-2.92-13.58q-4.4-20.73-8.81-41.46c-.13-.63-.33-1.24-.4-1.87-.12-1-.45-1.69-1.67-1.3-.89.28-1.11-.35-1.25-1-.71-3.44-1.42-6.88-2.16-10.31-.16-.74-.13-1.26.72-1.44,1.07-.21,1.13-.93.92-1.81-.52-2.26-.91-4.55-1.54-6.77-1-3.62-3.81-5.08-7.42-3.92-5.17,1.66-10.34,3.35-15.46,5.14a3,3,0,0,1-3.62-.7C698.78,79.34,696.47,77.38,693.8,75ZM421.94,254.07c0-5.73-2.85-10.12-7.79-11.25A13.41,13.41,0,0,0,400.44,247c-3.55,4-4.08,8.71-2.23,13.65a9.46,9.46,0,0,0,6.6,6.1C412.42,268.81,421.84,263.91,421.94,254.07Zm72.19-15.15a16,16,0,0,0-1.79-7.12,9,9,0,0,0-9.4-4.74,70.17,70.17,0,0,0-7.75,1.49c-2.06.48-2.1.49-2,2.68.34,6,.64,11.94,1.1,17.9.27,3.56-.23,3.37,3.36,2.58a62,62,0,0,0,9-2.37A11.1,11.1,0,0,0,494.13,238.92ZM242,303.33a81.11,81.11,0,0,0,11.57-2.8,11,11,0,0,0,7.85-9.64,13.39,13.39,0,0,0-.74-5.65c-1.67-5.35-5.62-7.9-11.15-7.08-2.53.37-5,1-7.52,1.47-1.3.23-1.62.92-1.52,2.16.24,3,.29,6.06.57,9.08C241.4,294.92,241.28,299,242,303.33ZM593.65,217l1.08-.69c3.46-2.21,4.6-5.43,3.19-9.05-1.23-3.14-4.11-4.53-8.12-3.81-2.27.41-4.54.91-6.8,1.42-2,.43-2,.46-1.88,2.52.34,6.46.73,12.91,1.08,19.37.1,1.74.41,2.2,2.21,1.53a12.58,12.58,0,0,1,1.64-.36c2.33-.53,2.33-.54,2.18-3-.09-1.27-.23-2.54-.29-3.82a3.28,3.28,0,0,1,.21-2,22.46,22.46,0,0,1,2.64,2.89c1.26,1.3,1.92,3.57,3.71,3.86s3.57-.62,5.36-1a6.1,6.1,0,0,0,.85-.39ZM295.57,291.46l-7-7.31a1.71,1.71,0,0,1,.91-.89c3.42-2.22,4.53-5.23,3.28-8.81-1.12-3.19-3.59-4.59-7.71-4.07-2.44.31-4.85.92-7.27,1.44-2,.41-2,.44-1.9,2.51q.48,9,1,17.92c.19,3.22-.41,3.62,3.49,2.72,3.08-.72,2.75-.45,2.53-3.63a43.25,43.25,0,0,1-.22-5.33,4.21,4.21,0,0,1,1.59,1.44c1.27,1.54,2.54,3.08,3.79,4.63.42.52.84,1,1.59.83A44.86,44.86,0,0,0,295.57,291.46Zm142.09-40.2c.7-.45,1.18-.73,1.62-1a7,7,0,0,0,2.7-8.62c-1.15-3.07-3.82-4.46-7.56-4-2.62.34-5.15,1.09-7.75,1.54-1.35.23-1.65.88-1.57,2.11.27,4.06.46,8.13.69,12.19.14,2.63.33,5.25.46,7.88.05,1.13.48,1.64,1.64,1.31l.93-.23c4.1-.93,3.61-.12,3.31-4.6a24.9,24.9,0,0,1-.08-4.89c1.95,2.37,3.51,4.28,5.09,6.17.44.53.8,1.34,1.68,1.12,1.9-.47,3.91-.57,5.93-1.56ZM538.5,214.82a5.39,5.39,0,0,0,1,2.49q4,7.89,8.12,15.73c1.92,3.68,1,2.93,4.81,2.32A2.77,2.77,0,0,0,555,233c1.89-7.08,3.92-14.13,5.88-21.19a2.42,2.42,0,0,0,.07-2c-1.43.29-2.89.69-4.37.86s-2,1-2.24,2.31c-.9,4.29-1.88,8.56-2.84,12.83-.09.39.15,1-.56,1.1-.48-.28-.52-.8-.71-1.22-1.67-3.62-3.32-7.25-5-10.87-.28-.62-.44-1.53-1.41-1.3A28.12,28.12,0,0,0,538.5,214.82Zm-34,25.76c-.75-3.87-.75-3.87,2.74-4.63.16,0,.32,0,.47-.08,3-.78,2.92,0,2.68-3.74,0-.16-.05-.32-.05-.47,0-1.09-.54-1.31-1.55-1.13a29.77,29.77,0,0,1-4.81.92c-.81-3.61-.81-3.61,2.57-4.36L507,227c3.9-.89,3.89-.93,3.23-4.88-.17-1-.6-1.14-1.45-1-3.34.76-6.68,1.57-10.05,2.21-1.36.25-1.62.92-1.54,2.13.45,6.68.85,13.37,1.3,20.05.1,1.52.2,1.58,1.79,1.24,3.12-.67,6.24-1.36,9.34-2.09.64-.15,1.66.05,1.78-.87a8,8,0,0,0-.32-4.23c-.2-.5-.85-.22-1.31-.12ZM368.47,276.12a12.2,12.2,0,0,0,5.59-1.72,7.48,7.48,0,0,0,4-7.37c-.27-3.37-2.23-5.34-5.41-6.23-1.15-.32-2.29-.69-3.41-1.11a1.55,1.55,0,0,1-1.17-1.62,1.92,1.92,0,0,1,1.25-1.62,4.1,4.1,0,0,1,3,.07c2.09.6,2.09.61,2.75-1.39.17-.53.31-1.08.51-1.6.34-.87,0-1.34-.83-1.65a10.71,10.71,0,0,0-7.95,0,7.54,7.54,0,0,0-5,7.22c.09,3.3,1.49,4.92,5.31,6.16,1.14.37,2.28.74,3.38,1.2a1.84,1.84,0,0,1,1.3,1.83,2.12,2.12,0,0,1-1.59,1.91,6.08,6.08,0,0,1-4-.14c-.88-.29-1.67-1.36-2.57-.85s-.83,1.67-1.26,2.52c-.15.28-.22.6-.37.88a1.31,1.31,0,0,0,.64,2A10.82,10.82,0,0,0,368.47,276.12Zm-36.92-8.66c-.13-1.94-.31-3.44-.31-4.93,0-1.16-.62-1.53-1.6-1.65-8.63-1.08-17.42,4.37-15.78,15.2.81,5.38,4.59,9.22,9.49,9.57a16.89,16.89,0,0,0,8.1-1.78,1.36,1.36,0,0,0,1-1.44c-.14-1.54-.25-3.09-.39-4.89a16.07,16.07,0,0,1-5.63,2.26,5.06,5.06,0,0,1-5-1.69,7.39,7.39,0,0,1-1-7.68c1-2.55,3.11-3.71,5.8-3.93A11.84,11.84,0,0,1,331.55,267.46Zm-28,7.82c-.76-3.49-.73-3.55,2.41-4.25.24-.06.47-.09.71-.14,3.65-.78,3.6-.78,3.26-4.49-.1-1.18-.54-1.54-1.66-1.28-3.42.77-6.84,1.55-10.28,2.25-1.07.22-1.18.81-1.13,1.71.41,6.84.81,13.69,1.16,20.53.07,1.29.62,1.39,1.7,1.13,2.71-.66,5.46-1.19,8.18-1.79,3.48-.77,3.59-1,3.05-4.64-.12-.81-.42-1.15-1.23-1-1.09.22-2.19.45-3.28.69-2.61.57-3.09.1-2.75-2.55a1.09,1.09,0,0,1,1-1.08c.62-.1,1.24-.29,1.86-.42,3.72-.8,3.72-.8,3.33-4.65a6.5,6.5,0,0,0-.24-.94C307.58,274.34,305.66,275.44,303.58,275.28Zm273-59.41a19,19,0,0,0-4,.73c-2.29.47-2.42.31-2.47-2,0-1.07.31-1.64,1.42-1.76.71-.08,1.4-.31,2.1-.45,3.53-.75,3.53-.75,3.22-4.29,0-.08,0-.16,0-.24,0-1.24-.6-1.47-1.68-1.23-3.35.76-6.7,1.52-10.07,2.2-1.13.23-1.35.83-1.29,1.86.31,4.94.58,9.88.86,14.82.11,1.92.23,3.83.32,5.75,0,.92.39,1.26,1.36,1,3.51-.79,7-1.53,10.54-2.3.46-.1,1.09-.25,1.08-.78,0-1.42.43-3.06-.45-4.17-.63-.8-1.93.09-2.93.23-.39.05-.78.14-1.17.23-2.66.58-3.1.17-2.79-2.51a1.08,1.08,0,0,1,1-1.1c.63-.1,1.25-.29,1.87-.42,3.73-.8,3.74-.8,3.35-4.65A7.08,7.08,0,0,0,576.53,215.87ZM459,241.76c-.16,0-.32-.14-.46-.11-1.1.2-2.21.37-3.29.64-2.62.65-2.65.69-2.7-2.37a1,1,0,0,1,.9-1.19c.79-.14,1.56-.34,2.34-.5,4-.85,3.92-.84,3.5-4.81-.12-1.13-.55-1.28-1.55-1q-5,1.15-10.07,2.17c-1.19.24-1.5.87-1.42,2,.3,4.54.52,9.08.78,13.63.12,2.23.27,4.46.36,6.69.05,1,.44,1.4,1.51,1.15,2.49-.58,5-1.07,7.49-1.61,4.49-1,4.49-1,3.78-5.56,0-.07-.1-.12-.21-.26-1.48-.12-2.9.48-4.37.75-2.49.47-2.5.44-2.56-2.05a1.49,1.49,0,0,1,1.45-1.75l1.18-.22c4.25-.93,4.26-.94,3.46-5.36C459.06,241.89,459,241.83,459,241.76Zm148.2-18.47c1.59-.33,3-.66,4.38-.9a1.45,1.45,0,0,0,1.37-1.81c-.16-2.07-.16-4.15-.38-6.2a8.28,8.28,0,0,1,.82-4.84c1.73-3.5,3.34-7,5-10.59a2.61,2.61,0,0,0,.46-1.86c-1.66.34-3.2.72-4.76,1a2.76,2.76,0,0,0-2.35,2c-.86,2.29-1.87,4.53-2.82,6.83-.58-.24-.8-.78-1.11-1.22-1-1.42-2-2.85-3.06-4.27-.37-.52-.71-1.15-1.5-1a36.46,36.46,0,0,0-5.52,1.36c.12,1,.81,1.44,1.29,2,2,2.55,4.1,5.1,6.22,7.58a5.27,5.27,0,0,1,1.34,3.46A52.54,52.54,0,0,0,607.15,223.29ZM338.09,264.21a2.56,2.56,0,0,1,.37,1.62c.27,4.06.56,8.11.77,12.16s.18,4.12,4.21,3.15c2.08-.51,2.09-.51,2-2.69-.28-4.61-.59-9.22-.84-13.83-.1-2-.05-2,1.76-2.39,3.12-.73,3.12-.73,2.81-3.85,0-.08,0-.16,0-.24-.21-1.85-.25-1.91-2-1.53-3.58.76-7.16,1.56-10.74,2.34s-3.64.87-3.15,4.57c0,.08,0,.16,0,.24.06.87.38,1.25,1.38,1.05A12.3,12.3,0,0,1,338.09,264.21Zm40.81-9.32c1.05.21,2-.3,3-.46,1.84-.29,1.85-.33,2,1.5.23,4,.32,8,.68,11.92.46,5-.64,4.28,4.6,3.29,1.27-.23,1.66-.83,1.58-2.11-.33-4.76-.56-9.54-.84-14.31-.12-2-.15-2,1.68-2.43,3.05-.75,3.05-.75,2.9-3.83,0-.23,0-.47,0-.71-.15-1.4-.19-1.47-1.65-1.16-3.43.73-6.85,1.51-10.27,2.25C377.88,249.84,377.84,249.9,378.9,254.89ZM529.3,238c0-.48,0-1-.07-1.44-.14-1.67-.16-1.7-1.88-1.35-1.41.29-2.82.56-4.2.93-1.13.3-1.57,0-1.63-1.2-.21-4-.48-8-.78-11.93-.11-1.39.54-3.3-.57-4s-2.71.41-4.12.57-1.6.93-1.52,2.14c.46,6.59.85,13.19,1.28,19.79.11,1.72.2,1.81,1.84,1.46,3.19-.67,6.37-1.42,9.57-2.11C529.27,240.41,529.42,240.8,529.3,238ZM270.66,273.59a31.68,31.68,0,0,0-4.51.74c-1.31.17-1.59.91-1.5,2.16.41,5.73.69,11.46,1.09,17.19.1,1.39-.55,3.35.6,4s2.87-.42,4.36-.61c1.08-.15,1.42-.76,1.34-1.84-.21-2.62-.32-5.25-.49-7.88C271.27,282.86,271,278.34,270.66,273.59Zm260.92-45.84c.19,3.26.41,6.52.58,9.79.1,2.13.13,2.34,2.14,1.75.68-.2,1.4-.31,2.1-.47,2-.47,2-.48,1.93-2.49-.32-5.65-.64-11.3-1-17-.31-4.7-.34-4.65-4.94-3.41-1.18.31-1.49.83-1.4,2C531.24,221.22,531.38,224.49,531.58,227.75Z"/><path class="cls-3" d="M861.05,210.18a2.3,2.3,0,0,1,.38,1.71q0,7.43,0,14.86c0,2.15,0,2.18-2.1,2.59q-15.39,3-30.81,6l-.23,0c-2.43.46-2.45.46-2.45,2.83q0,6.72,0,13.42c0,2.23.09,2.31,2.36,1.87q14-2.73,28-5.49c3.68-.73,3.68-.75,3.68,3,0,4.08,0,8.15,0,12.22,0,1.93,0,1.94-1.92,2.31l-29.63,5.79c-2.4.46-2.44.45-2.41,2.88.07,5.73.18,11.47.28,17.35a19.25,19.25,0,0,0,5.26-.77q37.27-7.31,74.54-14.67c1.57-.31,3.13-.66,4.7-.94a4,4,0,0,0,3.16-2.62,10.1,10.1,0,0,0-5.31-13.38,39.78,39.78,0,0,0-9.92-2.66,63.41,63.41,0,0,1-8-1.78c-9.6-2.85-15-9.35-16.42-19.15-1.67-11.35,2.16-20.74,11-27.8,10.92-8.73,23.39-11.36,37-7.85a23.2,23.2,0,0,1,10.44,5.64,20.25,20.25,0,0,1,2.22,2.5c1.22,1.62,1.18,1.74-.51,3q-5.7,4.18-11.44,8.32c-1.9,1.37-2,1.34-4,0-6.05-3.92-12.25-3.73-18.41-.45a10.74,10.74,0,0,0-5.82,11.14,7.58,7.58,0,0,0,4.72,6.16,38.82,38.82,0,0,0,9.24,2.47,57.67,57.67,0,0,1,10.86,2.91c9.72,3.76,15.12,10.75,16.24,21.17a29.81,29.81,0,0,1-2.5,15.87c-3.48,7.67-9.52,12-17.62,13.7q-31.21,6.45-62.45,12.8Q832,309.53,810.61,314a11.38,11.38,0,0,1-1.42.24c-1.42.14-2.1-.36-2.32-1.76a13.2,13.2,0,0,1,0-1.67q-.11-26.83-.22-53.68c-.06-11.18-.17-22.36-.26-33.54,0-.4,0-.8,0-1.2-.12-1.2.47-1.65,1.62-1.86,3.93-.71,7.85-1.53,11.77-2.3l38.57-7.53C859.23,210.47,860.18,210.32,861.05,210.18Z"/><path class="cls-3" d="M381.69,334.16c0,4-.09,7.95,0,11.84q.66,25.88,1.42,51.74c0,.95.07,1.74-1.12,2-5.78,1.23-11.55,2.49-17.24,3.73-.78-.67-.55-1.43-.56-2.1q-.56-28-1.08-56.07c-.21-10.62-.46-21.24-.67-31.86,0-1.8,0-1.84,1.72-2.22q12.16-2.69,24.34-5.34c2.23-.48,2.24-.46,3.05,1.68l19.17,50.62a7.36,7.36,0,0,0,1.19,2.39c.33-.95.6-1.64.81-2.35q8.37-29.61,16.68-59.24a3.35,3.35,0,0,1,3-2.77c8.29-1.73,16.55-3.6,24.82-5.42a2,2,0,0,0,.23-.06c2.64-.59,2.65-.59,2.69,2.07q.34,18.93.67,37.85.46,24.44.95,48.88c0,.56,0,1.11,0,1.67a1.11,1.11,0,0,1-1,1.18l-18.76,4.12c-.29-21.87-.57-43.48-.86-65.52A4.41,4.41,0,0,0,440,323.4l-19.6,65.38a11.46,11.46,0,0,0-.41,1.38c-.18,1-.81,1.4-1.79,1.6-3.76.77-7.52,1.55-11.23,2.49-1.38.35-1.83-.16-2.26-1.29-2.24-5.9-4.53-11.78-6.8-17.66q-7.55-19.56-15.1-39.11A4,4,0,0,0,381.69,334.16Z"/><path class="cls-3" d="M775,277.31a4.82,4.82,0,0,0,1.27,2.16c3.39,4.54,6.77,9.1,10.21,13.61,8.89,11.61,17.56,23.39,25.61,35.59,4.37,6.63,10.62,8.57,18,8.08,9.16-.6,16-5.41,21.66-12.27a5.55,5.55,0,0,1,3.51-2.13c5.81-1.12,11.59-2.33,17.39-3.47a4.43,4.43,0,0,1,2.45-.18A12.13,12.13,0,0,1,873.8,324c-7.1,15.74-18.69,26.25-35.71,30.3-8.67,2.06-17.39,2.56-26.08.08a33.29,33.29,0,0,1-21.12-17.2c-.6-1.13-1.24-2.23-1.93-3.3-10.44-16.28-21.45-32.17-32.29-48.18-.94-1.39-1.82-2-3.5-1.41a23.16,23.16,0,0,1-4.45.93c-1.26.17-1.56.82-1.49,1.95.13,2.47.22,4.95.28,7.42q.4,14.73.77,29.46c.05,2.06,0,2.07-2,2.48l-14.56,3c-3,.62-3.07.62-3.15-2.57-.24-10.14-.44-20.28-.69-30.42q-.7-28.62-1.42-57.24c-.08-3.21-.34-2.68,2.69-3.3,9.93-2,19.87-4.11,29.83-6a35.67,35.67,0,0,1,15,.27c9.91,2.37,15.85,9.6,16.84,20.18,1,10.93-3.44,19-12.46,24.9C777.29,276,776.12,276.64,775,277.31Zm-28.59-17.59h.42c0,3,0,6.07,0,9.1,0,1.16.36,1.54,1.59,1.25,3.34-.77,6.73-1.36,10.06-2.16a23.92,23.92,0,0,0,7.48-3.15c4.67-3,5.91-7.33,4-12.72a6.79,6.79,0,0,0-5.64-4.61,20.46,20.46,0,0,0-5-.22c-3.85.28-7.54,1.38-11.32,2-1.36.23-1.61.88-1.57,2.12C746.48,254.13,746.42,256.93,746.42,259.72Z"/><path class="cls-3" d="M634.22,301.77q-.39-21.31-.79-42.63c0-.32,0-.64,0-1,0-1.94,0-2,1.81-2.39,11.08-2.42,22.14-5,33.26-7.15a40.82,40.82,0,0,1,20.4,1.05c11.13,3.53,18.79,10.77,22.32,21.91,4.15,13.1,3.93,26.17-1.75,38.83C703.36,324,692.73,332.75,679,338c-5,1.93-10.3,2.89-15.52,4l-26.21,5.78c-2.07.45-2.19.41-2.24-1.73-.13-6.47-.19-12.94-.31-19.41q-.24-12.45-.51-24.91Zm19.88-4.31h.23c0,3.83,0,7.66,0,11.49,0,4.87.18,9.73.26,14.6,0,.9.09,1.61,1.32,1.31,5.27-1.28,10.69-2,15.84-3.75,22.11-7.45,24.64-30.88,17.89-43.74a18.39,18.39,0,0,0-11.49-9.47,23.11,23.11,0,0,0-10.67-.6c-3.93.7-7.82,1.61-11.72,2.46-2.21.48-2.22.5-2.18,2.8Q653.83,285,654.1,297.46Z"/><path class="cls-3" d="M350.59,362.92c-.1,11.16-3,21.47-9.57,30.57-8.3,11.47-19.7,17.9-33.56,20.25a50,50,0,0,1-19.76-.18c-12.22-2.82-20.8-10.11-25.13-21.79-5.73-15.47-5-30.81,3.09-45.32,8-14.3,20.49-22.42,36.55-25.25a48.84,48.84,0,0,1,19.75.17c12.62,2.95,20.93,10.77,25.46,22.76A55.94,55.94,0,0,1,350.59,362.92Zm-70.48,4.94c0,7.61.79,11.85,2.53,15.56,3.41,7.28,9.17,11.56,17.16,12,10.94.56,19.69-3.81,25.23-13.43,5.22-9.07,5.87-18.83,2.61-28.68-2.5-7.52-7.78-12.5-15.78-13.72a25.22,25.22,0,0,0-21.73,6.54A30.48,30.48,0,0,0,280.11,367.86Z"/><path class="cls-3" d="M536.83,369.21c.85-2.31,1.55-4.25,2.28-6.19q17.29-46.32,34.58-92.66a4.06,4.06,0,0,1,3.44-3c5-.94,10-2.11,15-3.3,2.69-.64,2.35-.18,3.06,1.67q11.7,30.27,23.39,60.54,3.93,10.17,7.84,20.33c.15.38.3.75.43,1.12.5,1.48.51,1.53-1,1.88-6,1.37-12,2.68-18,4.07-1.27.3-1.85,0-2.28-1.28-1.54-4.45-3.21-8.86-4.83-13.28-.81-2.2-.81-2.2-3-1.71-9.59,2.12-19.18,4.28-28.78,6.35a3.27,3.27,0,0,0-2.79,2.46c-1.78,5.47-3.77,10.86-5.59,16.31a3,3,0,0,1-2.43,2.24c-6.48,1.38-13,2.86-19.42,4.3C538.2,369.13,537.72,369.12,536.83,369.21Zm35.64-44.49a1.68,1.68,0,0,0,1.62.21q9.35-2.08,18.68-4.19c1.78-.4,1.81-.44,1.21-2.2-2.33-6.87-4.69-13.73-7-20.59l-2.55-7.4-.42,0Z"/><path class="cls-3" d="M810.08,126.37c-.77-3.58-1.49-6.9-2.21-10.23-.2-.93-.46-1.86-.59-2.81a1.58,1.58,0,0,1,1.34-1.94,1.5,1.5,0,0,1,1.83,1.17c.4,1.38.68,2.79,1,4.2.58,2.65,1.19,5.29,1.7,7.95.23,1.19.78,1.56,2,1.44,5.48-.6,11-1.14,16.46-1.71,1.66-.17,3.33-.41,5-.56a4.89,4.89,0,0,1,5.44,3.31c4.46,11.12,8.75,22.3,12.5,33.67a2.09,2.09,0,0,0,.08.23c.74,2.32.74,2.32-1.78,2.86l-8,1.74L836,167.63c-2,.44-2.06.43-2.65-1.55a23.23,23.23,0,0,0-5.29-9.54c-4.43-4.75-10.09-6.74-16.38-6.75-9.21,0-17.46,2.76-24.06,9.51a31,31,0,0,0-8.7,18.76c-.23,2-.2,2-2.13,2.45-4.29,1-8.59,1.86-12.88,2.79-2.59.56-2.6.57-3.14-1.94q-3.4-15.56-6.79-31.11l-8-36.72a2,2,0,0,0-.06-.23c-.55-2.54-.55-2.54,2-3.09,9.83-2.15,19.67-4.25,29.49-6.47,6.8-1.53,12.45.2,17.06,5.44s9.11,10.29,13.68,15.42A5.58,5.58,0,0,0,810.08,126.37Zm-9.56,1.38a4.37,4.37,0,0,0-.47-.78c-4.6-5.2-9.2-10.41-13.84-15.58a8,8,0,0,0-8.1-2.41c-7.73,1.63-15.44,3.35-23.16,5.06-1.63.36-1.64.41-1.29,2.07q1.3,6.09,2.65,12.16c1.24,5.57,5.43,8.24,11.06,7q15.23-3.27,30.42-6.62C798.69,128.48,799.72,128.57,800.52,127.75Z"/><path class="cls-3" d="M517.18,279.83a29,29,0,0,1,9.93,1.34c7.8,2.6,12.48,8.06,14.43,15.92a32.93,32.93,0,0,1,0,17.51,27.33,27.33,0,0,1-10.87,14.76c-5.75,4.1-12.26,6.47-19.05,8.14-3.48.86-7,1.59-10.51,2.37-2.19.5-2.23.5-2.19,2.82q.21,15.19.47,30.4c0,2.37,0,2.38-2.32,2.91q-7.71,1.74-15.43,3.44c-2.25.5-2.27.49-2.31-1.75q-.3-15.69-.58-31.37-.52-28-1.06-56c0-.48,0-1,0-1.43-.13-1.09.36-1.54,1.42-1.76,10.62-2.24,21.15-4.93,31.84-6.85A41.73,41.73,0,0,1,517.18,279.83Zm-18.76,43.22c5.88-1.36,11.51-2.06,16.65-4.61a19.08,19.08,0,0,0,3.63-2.31c4.46-3.63,4.89-11.57.87-15.7a7.64,7.64,0,0,0-3.92-2.19,14.25,14.25,0,0,0-4.28-.29c-4,.34-7.84,1.52-11.76,2.24-1.2.22-1.5.89-1.46,2,.12,4.47.2,8.94.27,13.41C498.45,318,498.42,320.37,498.42,323.05Z"/><path class="cls-3" d="M177.69,387.73c.53-16.12,7.27-31.24,22.55-41.72a48.61,48.61,0,0,1,38.13-8,29.15,29.15,0,0,1,12.41,5.44c1.32,1,1.34,1.07.32,2.45-3.37,4.56-6.77,9.1-10.14,13.67-.58.77-1,1.32-2.07.48-8.22-6.34-16.77-5.32-25.11-.51-7.47,4.3-11.6,11.26-13.56,19.52a33.56,33.56,0,0,0,.61,18.45c3.62,11.13,13.44,16.64,24.87,14.05a25.89,25.89,0,0,0,15.19-9.79,16.42,16.42,0,0,0,1.24-1.76c1.16-2,1.23-1.62,2.8-.38l2.64,2.07q4,3.11,7.91,6.23c1.77,1.39,1.77,1.41.6,3.18a40.17,40.17,0,0,1-10.31,10.92c-11.38,8-24,11.18-37.73,9-12.92-2.05-21.62-9.7-26.67-21.6C179,403.93,177.71,396.52,177.69,387.73Z"/><path class="cls-3" d="M411.05,172.54c-.66,14.43-7.47,26.79-22.54,33.74a39.75,39.75,0,0,1-23.66,3.12c-10.41-1.78-17.7-7.67-21.08-17.68-3.93-11.6-3.1-23,3.1-33.73,6-10.36,15.17-16.37,26.94-18.48a39,39,0,0,1,13.59-.29c12,2.06,19.26,9.31,22.36,20.9C410.7,163.61,411,167.19,411.05,172.54Zm-16.07-.6a22.94,22.94,0,0,0-.58-6c-1.72-8.22-8.34-13.44-16.55-12.94a19.67,19.67,0,0,0-16,9.15,25.52,25.52,0,0,0-3.22,22c1.81,6.19,6,10.13,12.56,11a19.41,19.41,0,0,0,16.58-5.18C393,185.2,394.9,178.91,395,171.94Z"/><path class="cls-3" d="M435.72,197.36c-6-.21-10.2-.89-14.2-2.72A21.94,21.94,0,0,1,417,192c-1.21-1-1.22-1-.17-2.25,2.54-3,5.14-5.91,7.65-8.91.75-.9,1.2-.83,2.11-.15,5,3.73,10.48,4.42,16.34,2.5a10.39,10.39,0,0,0,3.74-2.09,7,7,0,0,0-1.73-11.87,37,37,0,0,0-8.78-2.29c-1.81-.34-3.62-.7-5.37-1.21-7.53-2.22-11.86-7.76-12.32-15.6a19.82,19.82,0,0,1,5.79-15.45c4.61-4.78,10.39-7.34,16.83-8.51a30.35,30.35,0,0,1,16.29,1.32,17.25,17.25,0,0,1,4.42,2.36c1.3,1,1.32,1,.37,2.23-2.26,2.9-4.58,5.75-6.82,8.66-.76,1-1.31,1-2.31.26-4.49-3.15-9.29-3.16-14.09-.88-2.9,1.39-4.82,3.67-4.78,7.14a5.42,5.42,0,0,0,3.46,5.26,28.29,28.29,0,0,0,6.93,1.85,43.15,43.15,0,0,1,9.23,2.5A18.51,18.51,0,0,1,463.74,182a22.21,22.21,0,0,1-9,10A37.19,37.19,0,0,1,435.72,197.36Z"/><path class="cls-3" d="M300.75,225.18a13.93,13.93,0,0,1-.3-4.2q0-30.31-.05-60.61c0-1,0-2.08,0-3.12,0-3.89-.33-3,3-3.78,3.5-.78,7-1.42,10.57-2.1,1.73-.33,1.77-.31,1.79,1.36.05,2.8.05,5.59.05,8.39q0,21.67,0,43.36c0,2.83,0,2.81,2.71,2.33,6.84-1.22,13.69-2.37,20.52-3.65,2.34-.44,2.31-.37,2.3,2.06,0,3.2,0,6.39,0,9.58,0,2.29,0,2.3-2.28,2.75q-10.92,2.2-21.85,4.38l-13.62,2.75C302.67,224.87,301.73,225,300.75,225.18Z"/><path class="cls-3" d="M782.61,180.85c0-14.42,9.52-25.43,23.46-27.53a27.28,27.28,0,0,1,9.06,0,17.71,17.71,0,0,1,13.54,10.33c4.58,9.83,3.13,23.41-5.75,31.64-7.34,6.8-16.16,9-25.8,6.79-7.92-1.79-12.15-7.5-13.87-15.2A23.58,23.58,0,0,1,782.61,180.85ZM808.5,163a13.57,13.57,0,0,0-11,5.38,17.67,17.67,0,0,0-2.67,17.21,10.38,10.38,0,0,0,10.54,7.14,13.78,13.78,0,0,0,12.56-7.79,18.3,18.3,0,0,0,1.17-14.19A10.57,10.57,0,0,0,808.5,163Z"/><path class="cls-3" d="M834,182.84a39.62,39.62,0,0,0,.6-8.23c-.06-1.27.87-1.33,1.72-1.52l11-2.39L855,169c1.74-.36,1.77-.35,2.22,1.44a21.15,21.15,0,0,1,.84,5.18c0,1.95-.11,2.15-2,2.57q-8.19,1.8-16.38,3.54A38.54,38.54,0,0,1,834,182.84Z"/><path class="cls-3" d="M781.19,194.5c-5.34,1.17-10.39,2.27-15.44,3.41-1,.23-1.47-.17-1.67-1.12-.44-2.11-.88-4.21-1.38-6.31-.25-1,.18-1.41,1.15-1.61,4.53-1,9-1.91,13.56-3,1.15-.26,1.63.05,1.76,1.17A35.43,35.43,0,0,0,781.19,194.5Z"/><path class="cls-1" d="M421.94,254.07c-.1,9.84-9.52,14.74-17.13,12.72a9.46,9.46,0,0,1-6.6-6.1c-1.85-4.94-1.32-9.66,2.23-13.65a13.41,13.41,0,0,1,13.71-4.22C419.09,244,422,248.34,421.94,254.07Zm-18.43,1.27c.08,2.09.71,4.38,3.16,5.56a5.9,5.9,0,0,0,6.31-.72,7.39,7.39,0,0,0,2.3-8.18,5.32,5.32,0,0,0-5.67-3.78C406.09,248.45,403.54,251.25,403.51,255.34Z"/><path class="cls-1" d="M494.13,238.92a11.1,11.1,0,0,1-7.44,10.42,62,62,0,0,1-9,2.37c-3.59.79-3.09,1-3.36-2.58-.46-6-.76-11.93-1.1-17.9-.12-2.19-.08-2.2,2-2.68a70.17,70.17,0,0,1,7.75-1.49,9,9,0,0,1,9.4,4.74A16,16,0,0,1,494.13,238.92Zm-14.61-2.64q.23,3.94.46,7.9c0,.47.08.95.15,1.42s.4.78,1,.77a6.92,6.92,0,0,0,6.75-7,10.5,10.5,0,0,0-.65-3.27c-.87-2.28-2.11-3.15-4.53-3.16C479.55,232.89,479.31,233.15,479.52,236.28Z"/><path class="cls-1" d="M242,303.33c-.67-4.33-.55-8.41-.94-12.46-.28-3-.33-6.06-.57-9.08-.1-1.24.22-1.93,1.52-2.16,2.51-.45,5-1.1,7.52-1.47,5.53-.82,9.48,1.73,11.15,7.08a13.39,13.39,0,0,1,.74,5.65,11,11,0,0,1-7.85,9.64A81.11,81.11,0,0,1,242,303.33Zm7.81-19.47c-.17,0-.5,0-.81.06-2.25.29-2.35.4-2.23,2.71s.29,4.46.44,6.69c.08,1,.15,2.06.24,3.1.06.66.39.93,1.1.91a7,7,0,0,0,6.65-6.1,9.56,9.56,0,0,0-.77-4.44C253.53,284.73,252.15,283.85,249.76,283.86Z"/><path class="cls-1" d="M593.65,217l7.06,7.48a6.1,6.1,0,0,1-.85.39c-1.79.39-3.67,1.28-5.36,1s-2.45-2.56-3.71-3.86a22.46,22.46,0,0,0-2.64-2.89,3.28,3.28,0,0,0-.21,2c.06,1.28.2,2.55.29,3.82.15,2.46.15,2.47-2.18,3a12.58,12.58,0,0,0-1.64.36c-1.8.67-2.11.21-2.21-1.53-.35-6.46-.74-12.91-1.08-19.37-.11-2.06-.07-2.09,1.88-2.52,2.26-.51,4.53-1,6.8-1.42,4-.72,6.89.67,8.12,3.81,1.41,3.62.27,6.84-3.19,9.05Zm-5.57-3.33a7,7,0,0,0,3.67-1.05,3.13,3.13,0,0,0,.61-4.46,3.81,3.81,0,0,0-4.4-.54.85.85,0,0,0-.36.82A39.11,39.11,0,0,0,588.08,213.69Z"/><path class="cls-1" d="M295.57,291.46a44.86,44.86,0,0,1-5.89,1.45c-.75.17-1.17-.31-1.59-.83-1.25-1.55-2.52-3.09-3.79-4.63a4.21,4.21,0,0,0-1.59-1.44,43.25,43.25,0,0,0,.22,5.33c.22,3.18.55,2.91-2.53,3.63-3.9.9-3.3.5-3.49-2.72q-.53-9-1-17.92c-.11-2.07-.07-2.1,1.9-2.51,2.42-.52,4.83-1.13,7.27-1.44,4.12-.52,6.59.88,7.71,4.07,1.25,3.58.14,6.59-3.28,8.81a1.71,1.71,0,0,0-.91.89Zm-12.73-10.55a4.67,4.67,0,0,0,3.28-.61A3.08,3.08,0,0,0,287.4,276c-.67-1.25-3.17-1.83-4.49-1a1,1,0,0,0-.52,1A39.39,39.39,0,0,0,282.84,280.91Z"/><path class="cls-1" d="M437.66,251.26l7.09,7.39c-2,1-4,1.09-5.93,1.56-.88.22-1.24-.59-1.68-1.12-1.58-1.89-3.14-3.8-5.09-6.17a24.9,24.9,0,0,0,.08,4.89c.3,4.48.79,3.67-3.31,4.6l-.93.23c-1.16.33-1.59-.18-1.64-1.31-.13-2.63-.32-5.25-.46-7.88-.23-4.06-.42-8.13-.69-12.19-.08-1.23.22-1.88,1.57-2.11,2.6-.45,5.13-1.2,7.75-1.54,3.74-.48,6.41.91,7.56,4a7,7,0,0,1-2.7,8.62C438.84,250.53,438.36,250.81,437.66,251.26Zm-3.78-9.37c-2.23,0-2.51.27-2.43,2.6,0,.48,0,.95.06,1.42.16,2.69.48,2.91,3,1.94a4.83,4.83,0,0,0,1.24-.68,3.1,3.1,0,0,0,.89-3.45A2.5,2.5,0,0,0,433.88,241.89Z"/><path class="cls-1" d="M538.5,214.82a28.12,28.12,0,0,1,5.28-1.31c1-.23,1.13.68,1.41,1.3,1.67,3.62,3.32,7.25,5,10.87.19.42.23.94.71,1.22.71-.09.47-.71.56-1.1,1-4.27,1.94-8.54,2.84-12.83.28-1.3.78-2.13,2.24-2.31s2.94-.57,4.37-.86a2.42,2.42,0,0,1-.07,2c-2,7.06-4,14.11-5.88,21.19a2.77,2.77,0,0,1-2.52,2.36c-3.76.61-2.89,1.36-4.81-2.32q-4.1-7.84-8.12-15.73A5.39,5.39,0,0,1,538.5,214.82Z"/><path class="cls-1" d="M504.53,240.58l5.28-1.13c.46-.1,1.11-.38,1.31.12a8,8,0,0,1,.32,4.23c-.12.92-1.14.72-1.78.87-3.1.73-6.22,1.42-9.34,2.09-1.59.34-1.69.28-1.79-1.24-.45-6.68-.85-13.37-1.3-20.05-.08-1.21.18-1.88,1.54-2.13,3.37-.64,6.71-1.45,10.05-2.21.85-.19,1.28-.06,1.45,1,.66,3.95.67,4-3.23,4.88l-.46.13c-3.38.75-3.38.75-2.57,4.36a29.77,29.77,0,0,0,4.81-.92c1-.18,1.54,0,1.55,1.13,0,.15,0,.31.05.47.24,3.79.35,3-2.68,3.74-.15,0-.31,0-.47.08C503.78,236.71,503.78,236.71,504.53,240.58Z"/><path class="cls-1" d="M368.47,276.12a10.82,10.82,0,0,1-5.78-1.57,1.31,1.31,0,0,1-.64-2c.15-.28.22-.6.37-.88.43-.85.46-2.07,1.26-2.52s1.69.56,2.57.85a6.08,6.08,0,0,0,4,.14,2.12,2.12,0,0,0,1.59-1.91,1.84,1.84,0,0,0-1.3-1.83c-1.1-.46-2.24-.83-3.38-1.2-3.82-1.24-5.22-2.86-5.31-6.16a7.54,7.54,0,0,1,5-7.22,10.71,10.71,0,0,1,7.95,0c.79.31,1.17.78.83,1.65-.2.52-.34,1.07-.51,1.6-.66,2-.66,2-2.75,1.39a4.1,4.1,0,0,0-3-.07,1.92,1.92,0,0,0-1.25,1.62,1.55,1.55,0,0,0,1.17,1.62c1.12.42,2.26.79,3.41,1.11,3.18.89,5.14,2.86,5.41,6.23a7.48,7.48,0,0,1-4,7.37A12.2,12.2,0,0,1,368.47,276.12Z"/><path class="cls-1" d="M331.55,267.46a11.84,11.84,0,0,0-5.32-1c-2.69.22-4.78,1.38-5.8,3.93a7.39,7.39,0,0,0,1,7.68,5.06,5.06,0,0,0,5,1.69,16.07,16.07,0,0,0,5.63-2.26c.14,1.8.25,3.35.39,4.89a1.36,1.36,0,0,1-1,1.44,16.89,16.89,0,0,1-8.1,1.78c-4.9-.35-8.68-4.19-9.49-9.57-1.64-10.83,7.15-16.28,15.78-15.2,1,.12,1.59.49,1.6,1.65C331.24,264,331.42,265.52,331.55,267.46Z"/><path class="cls-1" d="M303.58,275.28c2.08.16,4-.94,6.13-.9a6.5,6.5,0,0,1,.24.94c.39,3.85.39,3.85-3.33,4.65-.62.13-1.24.32-1.86.42a1.09,1.09,0,0,0-1,1.08c-.34,2.65.14,3.12,2.75,2.55,1.09-.24,2.19-.47,3.28-.69.81-.17,1.11.17,1.23,1,.54,3.66.43,3.87-3.05,4.64-2.72.6-5.47,1.13-8.18,1.79-1.08.26-1.63.16-1.7-1.13-.35-6.84-.75-13.69-1.16-20.53-.05-.9.06-1.49,1.13-1.71,3.44-.7,6.86-1.48,10.28-2.25,1.12-.26,1.56.1,1.66,1.28.34,3.71.39,3.71-3.26,4.49-.24.05-.47.08-.71.14C302.85,271.73,302.82,271.79,303.58,275.28Z"/><path class="cls-1" d="M576.53,215.87a7.08,7.08,0,0,1,.24,1c.39,3.85.38,3.85-3.35,4.65-.62.13-1.24.32-1.87.42a1.08,1.08,0,0,0-1,1.1c-.31,2.68.13,3.09,2.79,2.51.39-.09.78-.18,1.17-.23,1-.14,2.3-1,2.93-.23.88,1.11.44,2.75.45,4.17,0,.53-.62.68-1.08.78-3.51.77-7,1.51-10.54,2.3-1,.22-1.32-.12-1.36-1-.09-1.92-.21-3.83-.32-5.75-.28-4.94-.55-9.88-.86-14.82-.06-1,.16-1.63,1.29-1.86,3.37-.68,6.72-1.44,10.07-2.2,1.08-.24,1.73,0,1.68,1.23,0,.08,0,.16,0,.24.31,3.54.31,3.54-3.22,4.29-.7.14-1.39.37-2.1.45-1.11.12-1.44.69-1.42,1.76.05,2.31.18,2.47,2.47,2A19,19,0,0,1,576.53,215.87Z"/><path class="cls-1" d="M459,241.76c0,.07.11.13.12.2.8,4.42.79,4.43-3.46,5.36l-1.18.22a1.49,1.49,0,0,0-1.45,1.75c.06,2.49.07,2.52,2.56,2.05,1.47-.27,2.89-.87,4.37-.75.11.14.2.19.21.26.71,4.59.71,4.59-3.78,5.56-2.49.54-5,1-7.49,1.61-1.07.25-1.46-.12-1.51-1.15-.09-2.23-.24-4.46-.36-6.69-.26-4.55-.48-9.09-.78-13.63-.08-1.14.23-1.77,1.42-2q5.06-1,10.07-2.17c1-.23,1.43-.08,1.55,1,.42,4,.46,4-3.5,4.81-.78.16-1.55.36-2.34.5a1,1,0,0,0-.9,1.19c.05,3.06.08,3,2.7,2.37,1.08-.27,2.19-.44,3.29-.64C458.63,241.62,458.79,241.72,459,241.76Z"/><path class="cls-1" d="M607.15,223.29a52.54,52.54,0,0,1-.63-8.38,5.27,5.27,0,0,0-1.34-3.46c-2.12-2.48-4.17-5-6.22-7.58-.48-.59-1.17-1.07-1.29-2a36.46,36.46,0,0,1,5.52-1.36c.79-.2,1.13.43,1.5,1,1,1.42,2,2.85,3.06,4.27.31.44.53,1,1.11,1.22.95-2.3,2-4.54,2.82-6.83a2.76,2.76,0,0,1,2.35-2c1.56-.25,3.1-.63,4.76-1a2.61,2.61,0,0,1-.46,1.86c-1.65,3.54-3.26,7.09-5,10.59a8.28,8.28,0,0,0-.82,4.84c.22,2.05.22,4.13.38,6.2a1.45,1.45,0,0,1-1.37,1.81C610.13,222.63,608.74,223,607.15,223.29Z"/><path class="cls-1" d="M338.09,264.21a12.3,12.3,0,0,0-3.5.6c-1,.2-1.32-.18-1.38-1.05,0-.08,0-.16,0-.24-.49-3.7-.42-3.79,3.15-4.57s7.16-1.58,10.74-2.34c1.78-.38,1.82-.32,2,1.53,0,.08,0,.16,0,.24.31,3.12.31,3.12-2.81,3.85-1.81.43-1.86.43-1.76,2.39.25,4.61.56,9.22.84,13.83.13,2.18.12,2.18-2,2.69-4,1-4,1-4.21-3.15s-.5-8.1-.77-12.16A2.56,2.56,0,0,0,338.09,264.21Z"/><path class="cls-1" d="M378.9,254.89c-1.06-5-1-5,3.62-6,3.42-.74,6.84-1.52,10.27-2.25,1.46-.31,1.5-.24,1.65,1.16,0,.24,0,.48,0,.71.15,3.08.15,3.08-2.9,3.83-1.83.45-1.8.45-1.68,2.43.28,4.77.51,9.55.84,14.31.08,1.28-.31,1.88-1.58,2.11-5.24,1-4.14,1.67-4.6-3.29-.36-4-.45-8-.68-11.92-.11-1.83-.12-1.79-2-1.5C380.91,254.59,380,255.1,378.9,254.89Z"/><path class="cls-1" d="M529.3,238c.12,2.78,0,2.39-2.08,2.82-3.2.69-6.38,1.44-9.57,2.11-1.64.35-1.73.26-1.84-1.46-.43-6.6-.82-13.2-1.28-19.79-.08-1.21.14-2,1.52-2.14s3.07-1.27,4.12-.57.46,2.65.57,4c.3,4,.57,7.95.78,11.93.06,1.21.5,1.5,1.63,1.2,1.38-.37,2.79-.64,4.2-.93,1.72-.35,1.74-.32,1.88,1.35C529.27,237.06,529.28,237.54,529.3,238Z"/><path class="cls-1" d="M270.66,273.59c.31,4.75.61,9.27.89,13.8.17,2.63.28,5.26.49,7.88.08,1.08-.26,1.69-1.34,1.84-1.49.19-3.19,1.32-4.36.61s-.5-2.65-.6-4c-.4-5.73-.68-11.46-1.09-17.19-.09-1.25.19-2,1.5-2.16A31.68,31.68,0,0,1,270.66,273.59Z"/><path class="cls-1" d="M531.58,227.75c-.2-3.26-.34-6.53-.6-9.79-.09-1.16.22-1.68,1.4-2,4.6-1.24,4.63-1.29,4.94,3.41.37,5.65.69,11.3,1,17,.11,2,.09,2-1.93,2.49-.7.16-1.42.27-2.1.47-2,.59-2,.38-2.14-1.75C532,234.27,531.77,231,531.58,227.75Z"/><path class="cls-1" d="M746.42,259.72c0-2.79.06-5.59,0-8.38,0-1.24.21-1.89,1.57-2.12,3.78-.63,7.47-1.73,11.32-2a20.46,20.46,0,0,1,5,.22,6.79,6.79,0,0,1,5.64,4.61c1.94,5.39.7,9.73-4,12.72a23.92,23.92,0,0,1-7.48,3.15c-3.33.8-6.72,1.39-10.06,2.16-1.23.29-1.6-.09-1.59-1.25,0-3,0-6.06,0-9.1Z"/><path class="cls-1" d="M654.1,297.46q-.26-12.45-.51-24.9c0-2.3,0-2.32,2.18-2.8,3.9-.85,7.79-1.76,11.72-2.46a23.11,23.11,0,0,1,10.67.6,18.39,18.39,0,0,1,11.49,9.47c6.75,12.86,4.22,36.29-17.89,43.74-5.15,1.74-10.57,2.47-15.84,3.75-1.23.3-1.3-.41-1.32-1.31-.08-4.87-.21-9.73-.26-14.6-.05-3.83,0-7.66,0-11.49Z"/><path class="cls-1" d="M280.11,367.86a30.48,30.48,0,0,1,10-21.76,25.22,25.22,0,0,1,21.73-6.54c8,1.22,13.28,6.2,15.78,13.72,3.26,9.85,2.61,19.61-2.61,28.68-5.54,9.62-14.29,14-25.23,13.43-8-.41-13.75-4.69-17.16-12C280.9,379.71,280.11,375.47,280.11,367.86Z"/><path class="cls-1" d="M572.47,324.72,584,290.52l.42,0L587,298c2.34,6.86,4.7,13.72,7,20.59.6,1.76.57,1.8-1.21,2.2q-9.33,2.11-18.68,4.19A1.68,1.68,0,0,1,572.47,324.72Z"/><path class="cls-1" d="M800.52,127.75c-.8.82-1.83.73-2.73.93Q782.6,132,767.37,135.3c-5.63,1.21-9.82-1.46-11.06-7q-1.35-6.08-2.65-12.16c-.35-1.66-.34-1.71,1.29-2.07,7.72-1.71,15.43-3.43,23.16-5.06a8,8,0,0,1,8.1,2.41c4.64,5.17,9.24,10.38,13.84,15.58A4.37,4.37,0,0,1,800.52,127.75Z"/><path class="cls-1" d="M498.42,323.05c0-2.68,0-5.06,0-7.44-.07-4.47-.15-8.94-.27-13.41,0-1.12.26-1.79,1.46-2,3.92-.72,7.76-1.9,11.76-2.24a14.25,14.25,0,0,1,4.28.29,7.64,7.64,0,0,1,3.92,2.19c4,4.13,3.59,12.07-.87,15.7a19.08,19.08,0,0,1-3.63,2.31C509.93,321,504.3,321.69,498.42,323.05Z"/><path class="cls-1" d="M395,171.94c-.08,7-2,13.26-7.25,18.14a19.41,19.41,0,0,1-16.58,5.18c-6.52-.91-10.75-4.85-12.56-11a25.52,25.52,0,0,1,3.22-22,19.67,19.67,0,0,1,16-9.15c8.21-.5,14.83,4.72,16.55,12.94A22.94,22.94,0,0,1,395,171.94Z"/><path class="cls-1" d="M808.5,163a10.57,10.57,0,0,1,10.59,7.75,18.3,18.3,0,0,1-1.17,14.19,13.78,13.78,0,0,1-12.56,7.79,10.38,10.38,0,0,1-10.54-7.14,17.67,17.67,0,0,1,2.67-17.21A13.57,13.57,0,0,1,808.5,163Z"/><path class="cls-3" d="M403.51,255.34c0-4.09,2.58-6.89,6.1-7.12a5.32,5.32,0,0,1,5.67,3.78,7.39,7.39,0,0,1-2.3,8.18,5.9,5.9,0,0,1-6.31.72C404.22,259.72,403.59,257.43,403.51,255.34Z"/><path class="cls-3" d="M479.52,236.28c-.21-3.13,0-3.39,3.17-3.36,2.42,0,3.66.88,4.53,3.16a10.5,10.5,0,0,1,.65,3.27,6.92,6.92,0,0,1-6.75,7c-.59,0-.91-.21-1-.77s-.12-.95-.15-1.42Q479.74,240.22,479.52,236.28Z"/><path class="cls-3" d="M249.76,283.86c2.39,0,3.77.87,4.62,2.93a9.56,9.56,0,0,1,.77,4.44,7,7,0,0,1-6.65,6.1c-.71,0-1-.25-1.1-.91-.09-1-.16-2.07-.24-3.1-.15-2.23-.32-4.46-.44-6.69s0-2.42,2.23-2.71C249.26,283.88,249.59,283.87,249.76,283.86Z"/><path class="cls-3" d="M588.08,213.69a39.11,39.11,0,0,1-.48-5.23.85.85,0,0,1,.36-.82,3.81,3.81,0,0,1,4.4.54,3.13,3.13,0,0,1-.61,4.46A7,7,0,0,1,588.08,213.69Z"/><path class="cls-3" d="M282.84,280.91a39.39,39.39,0,0,1-.45-5,1,1,0,0,1,.52-1c1.32-.79,3.82-.21,4.49,1a3.08,3.08,0,0,1-1.28,4.32A4.67,4.67,0,0,1,282.84,280.91Z"/><path class="cls-3" d="M433.88,241.89a2.5,2.5,0,0,1,2.72,1.83,3.1,3.1,0,0,1-.89,3.45,4.83,4.83,0,0,1-1.24.68c-2.48,1-2.8.75-3-1.94,0-.47-.05-.94-.06-1.42C431.37,242.16,431.65,241.86,433.88,241.89Z"/></g></g></svg>