<?xml version="1.0" encoding="UTF-8" standalone="no"?>
<!DOCTYPE svg PUBLIC "-//W3C//DTD SVG 1.1//EN" "http://www.w3.org/Graphics/SVG/1.1/DTD/svg11.dtd">
<svg width="100%" height="100%" viewBox="0 0 759 363" version="1.1" xmlns="http://www.w3.org/2000/svg" xmlns:xlink="http://www.w3.org/1999/xlink" xml:space="preserve" xmlns:serif="http://www.serif.com/" style="fill-rule:evenodd;clip-rule:evenodd;stroke-linejoin:round;stroke-miterlimit:2;">
    <g transform="matrix(1,0,0,1,-1393.48,-714.032)">
        <g transform="matrix(1,0,0,1,1215,0)">
            <g transform="matrix(1,0,0,1,-1215,0)">
                <path d="M1957.11,744.496L1954.41,731.74L1951.89,732.306L1951.26,729.129C1949.06,716.792 1942.71,712.891 1935.66,714.308L1909.72,719.527L1918.36,727.334L1935.81,721.519C1939.7,720.039 1942.74,722.4 1943.5,726.069L1945.2,733.807L1942.95,734.313L1945.65,747.07L1947.97,746.55L1960.75,806.736L1393.98,911.79L1393.98,974.194L1969.37,846.283L1969.39,846.352L1976.05,844.899L1954.6,745.06L1957.11,744.496ZM1476.87,937.385C1476.44,939.194 1475.54,940.847 1474.17,942.34C1473.21,943.377 1471.98,944.235 1470.49,944.915C1469,945.596 1466.42,946.337 1462.76,947.142L1461.9,947.329L1457.51,948.294L1456.07,924.772L1459.99,923.913C1462.91,923.271 1465.01,922.894 1466.29,922.781C1467.58,922.668 1468.65,922.723 1469.51,922.946C1471.39,923.424 1472.94,924.388 1474.19,925.834C1475.44,927.281 1476.31,929.134 1476.8,931.391C1477.28,933.577 1477.31,935.574 1476.87,937.385ZM1481.66,942.993L1480.28,919.46L1486.48,918.101L1487.86,941.632L1481.66,942.993ZM1468.3,929.307C1467.18,928.634 1465.6,928.523 1463.54,928.976L1462.38,929.228L1463.22,942.315C1463.65,942.253 1463.97,942.202 1464.17,942.163C1464.38,942.123 1464.57,942.085 1464.74,942.046C1467.18,941.512 1468.89,940.495 1469.88,938.997C1470.88,937.497 1471.12,935.566 1470.6,933.205C1470.18,931.28 1469.41,929.981 1468.3,929.307ZM1504.65,937.947L1498.35,930.228L1498.89,939.212L1492.85,940.538L1491.44,917.008L1497.5,915.679C1499.33,915.279 1500.69,915.046 1501.61,914.98C1502.53,914.914 1503.35,914.965 1504.07,915.133C1505.34,915.419 1506.38,915.987 1507.18,916.836C1507.99,917.685 1508.54,918.792 1508.84,920.159C1509.26,922.045 1509.04,923.744 1508.19,925.259C1507.35,926.774 1505.98,927.908 1504.08,928.662L1511.58,936.427L1504.65,937.947ZM1513.9,935.919L1512.5,912.388L1525.61,909.511L1525.94,914.943L1518.9,916.488L1519.14,920.326L1525.66,918.894L1525.99,924.001L1519.43,925.439L1519.65,929.347L1526.69,927.803L1527.01,933.04L1513.9,935.919ZM1545.82,929.311C1544.91,929.646 1543.91,929.933 1542.83,930.172C1539.59,930.884 1536.77,930.45 1534.38,928.869C1531.98,927.288 1530.42,924.834 1529.69,921.51C1529.34,919.906 1529.26,918.32 1529.44,916.755C1529.62,915.191 1530.07,913.705 1530.78,912.3C1531.62,910.663 1532.8,909.289 1534.35,908.18C1535.89,907.071 1537.72,906.285 1539.83,905.821C1541.03,905.558 1542.22,905.436 1543.41,905.458C1544.6,905.48 1545.79,905.642 1546.99,905.943L1547.34,912.445C1546.3,911.879 1545.23,911.515 1544.12,911.352C1543.01,911.188 1541.9,911.229 1540.79,911.471C1538.91,911.885 1537.5,912.884 1536.57,914.466C1535.63,916.049 1535.39,917.863 1535.84,919.902C1536.24,921.746 1537.07,923.06 1538.31,923.844C1539.56,924.628 1541.12,924.815 1543,924.403C1543.8,924.227 1544.61,923.947 1545.42,923.562C1546.23,923.177 1547.07,922.685 1547.92,922.085L1548.27,928.18C1547.55,928.599 1546.73,928.976 1545.82,929.311ZM1561.3,925.517L1555.19,926.856L1554.13,908.789L1549.03,909.907L1548.74,904.435L1564.81,900.911L1565.09,906.382L1560.23,907.449L1561.3,925.517ZM1502.05,919.664C1501.35,919.355 1500.34,919.346 1499.01,919.638L1498.11,919.835L1498.48,926.024L1500.39,925.605C1501.59,925.34 1502.45,924.864 1502.97,924.174C1503.49,923.484 1503.64,922.621 1503.41,921.586C1503.2,920.613 1502.74,919.972 1502.05,919.664ZM1592.39,917.008C1591.02,918.832 1588.89,920.064 1585.99,920.7C1584.47,921.034 1582.97,921.022 1581.5,920.667C1580.04,920.311 1578.63,919.612 1577.28,918.572L1579.44,913.329C1580.62,914.144 1581.69,914.692 1582.65,914.968C1583.62,915.244 1584.57,915.28 1585.49,915.079C1586.25,914.91 1586.82,914.59 1587.2,914.116C1587.57,913.644 1587.69,913.103 1587.56,912.491C1587.38,911.663 1586.26,910.97 1584.2,910.411C1584.01,910.356 1583.85,910.315 1583.74,910.285C1581.74,909.746 1580.32,909.12 1579.46,908.406C1578.61,907.691 1578.05,906.719 1577.78,905.486C1577.29,903.24 1577.64,901.234 1578.85,899.472C1580.05,897.71 1581.85,896.566 1584.24,896.041C1585.5,895.764 1586.77,895.721 1588.03,895.91C1589.29,896.099 1590.54,896.516 1591.76,897.159L1590.14,902.221C1589.17,901.697 1588.31,901.336 1587.56,901.142C1586.81,900.948 1586.15,900.914 1585.58,901.039C1584.96,901.176 1584.48,901.467 1584.14,901.916C1583.81,902.364 1583.7,902.847 1583.81,903.365C1583.95,904.007 1584.89,904.556 1586.62,905.013C1587.23,905.172 1587.7,905.306 1588.04,905.417C1589.83,905.947 1591.13,906.601 1591.96,907.382C1592.78,908.162 1593.34,909.242 1593.64,910.619C1594.18,913.052 1593.76,915.182 1592.39,917.008ZM1606.66,915.562L1600.55,916.901L1599.49,898.835L1594.39,899.953L1594.1,894.481L1610.16,890.956L1610.45,896.428L1605.59,897.494L1606.66,915.562ZM1637.68,900.507C1637.47,902.109 1636.99,903.62 1636.22,905.035C1635.29,906.771 1634.05,908.204 1632.51,909.335C1630.97,910.465 1629.17,911.258 1627.11,911.709C1625.48,912.067 1623.95,912.169 1622.52,912.016C1621.1,911.862 1619.77,911.453 1618.53,910.79C1617.24,910.075 1616.13,909.087 1615.21,907.824C1614.3,906.559 1613.66,905.14 1613.32,903.566C1612.94,901.867 1612.86,900.223 1613.06,898.633C1613.26,897.042 1613.74,895.533 1614.51,894.104C1615.41,892.409 1616.65,890.99 1618.23,889.845C1619.81,888.701 1621.62,887.905 1623.65,887.457C1627.07,886.708 1630.05,887.085 1632.59,888.59C1635.13,890.096 1636.75,892.422 1637.44,895.57C1637.81,897.258 1637.89,898.903 1637.68,900.507ZM1653.95,905.184L1647.65,897.466L1648.18,906.45L1642.14,907.776L1640.74,884.245L1646.8,882.916C1648.62,882.517 1649.99,882.284 1650.91,882.217C1651.83,882.151 1652.65,882.203 1653.37,882.37C1654.64,882.656 1655.67,883.224 1656.48,884.073C1657.29,884.923 1657.84,886.029 1658.14,887.397C1658.55,889.283 1658.34,890.981 1657.49,892.497C1656.64,894.012 1655.27,895.146 1653.38,895.899L1660.88,903.664L1653.95,905.184ZM1628.81,893.804C1627.55,892.98 1626.11,892.745 1624.51,893.097C1622.65,893.503 1621.25,894.513 1620.29,896.122C1619.33,897.734 1619.06,899.528 1619.5,901.506C1619.88,903.256 1620.69,904.545 1621.91,905.371C1623.14,906.199 1624.59,906.429 1626.26,906.062C1628.08,905.663 1629.48,904.631 1630.45,902.969C1631.42,901.308 1631.69,899.483 1631.25,897.494C1630.89,895.857 1630.08,894.628 1628.81,893.804ZM1663.24,903.146L1661.83,879.615L1674.95,876.738L1675.27,882.17L1668.24,883.714L1668.48,887.553L1675,886.12L1675.32,891.228L1668.77,892.666L1668.99,896.575L1676.03,895.03L1676.35,900.267L1663.24,903.146ZM1709.64,886.302C1709.21,888.112 1708.31,889.764 1706.95,891.257C1705.98,892.294 1704.75,893.152 1703.26,893.833C1701.77,894.513 1699.19,895.254 1695.53,896.059L1694.67,896.246L1690.28,897.211L1688.84,873.689L1692.76,872.829C1695.68,872.188 1697.78,871.811 1699.07,871.698C1700.35,871.586 1701.42,871.639 1702.28,871.863C1704.16,872.341 1705.72,873.305 1706.96,874.752C1708.21,876.198 1709.08,878.051 1709.58,880.308C1710.06,882.494 1710.08,884.492 1709.64,886.302ZM1651.09,886.882C1650.39,886.573 1649.38,886.564 1648.06,886.856L1647.15,887.053L1647.52,893.242L1649.43,892.823C1650.63,892.558 1651.49,892.082 1652.02,891.392C1652.54,890.702 1652.68,889.839 1652.46,888.804C1652.24,887.831 1651.79,887.19 1651.09,886.882ZM1714.35,891.93L1712.94,868.399L1726.05,865.522L1726.38,870.954L1719.35,872.498L1719.59,876.337L1726.11,874.905L1726.43,880.012L1719.88,881.45L1720.1,885.359L1727.14,883.815L1727.45,889.052L1714.35,891.93ZM1701.07,878.224C1699.96,877.551 1698.37,877.44 1696.31,877.893L1695.16,878.145L1695.99,891.232C1696.43,891.17 1696.74,891.119 1696.95,891.08C1697.15,891.04 1697.34,891.002 1697.52,890.963C1699.95,890.429 1701.66,889.412 1702.66,887.914C1703.65,886.414 1703.89,884.483 1703.37,882.122C1702.95,880.197 1702.18,878.897 1701.07,878.224ZM1731.66,888.13L1730.26,864.6L1736.38,863.257L1737.42,881.166L1744.94,879.516L1745.28,885.14L1731.66,888.13ZM1748.07,884.53L1746.68,860.997L1752.88,859.637L1754.26,883.169L1748.07,884.53ZM1770.24,879.663L1764.96,880.822L1753.91,859.409L1760.37,857.991L1766.02,870.38C1766.17,870.694 1766.31,871.057 1766.46,871.465C1766.6,871.873 1766.75,872.347 1766.91,872.887C1766.99,872.274 1767.06,871.718 1767.14,871.216C1767.22,870.716 1767.29,870.318 1767.35,870.024L1770.53,855.762L1777.31,854.276L1770.24,879.663ZM1780.79,877.348L1779.39,853.818L1792.5,850.941L1792.83,856.373L1785.79,857.917L1786.03,861.755L1792.56,860.323L1792.88,865.43L1786.32,866.869L1786.55,870.777L1793.58,869.233L1793.9,874.47L1780.79,877.348ZM1809.96,870.945L1803.66,863.227L1804.2,872.211L1798.16,873.537L1796.75,850.007L1802.81,848.678C1804.63,848.278 1806.01,848.045 1806.92,847.979C1807.85,847.913 1808.66,847.964 1809.38,848.132C1810.65,848.418 1811.69,848.986 1812.49,849.835C1813.3,850.684 1813.85,851.791 1814.15,853.158C1814.57,855.044 1814.35,856.743 1813.5,858.258C1812.66,859.773 1811.29,860.907 1809.39,861.661L1816.89,869.425L1809.96,870.945ZM1828.88,866.794L1822.77,868.137L1822.14,857.642L1812.97,846.449L1819.75,844.961L1823.51,850.226C1823.71,850.497 1823.92,850.806 1824.14,851.153C1824.36,851.5 1824.59,851.872 1824.82,852.266C1824.95,851.553 1825.07,850.998 1825.16,850.604C1825.25,850.21 1825.34,849.922 1825.4,849.745L1828.18,843.111L1835.19,841.574L1828.26,856.364L1828.88,866.794ZM1807.33,852.176C1806.63,851.867 1805.62,851.858 1804.29,852.15L1803.39,852.347L1803.76,858.536L1805.67,858.117C1806.87,857.852 1807.73,857.376 1808.25,856.686C1808.78,855.996 1808.92,855.134 1808.7,854.098C1808.48,853.125 1808.03,852.484 1807.33,852.176ZM2043.23,805.985C2041.73,803.706 2039.87,801.876 2037.64,800.498C2035.41,799.12 2032.84,798.23 2029.94,797.83C2027.04,797.429 2023.88,797.566 2020.46,798.249C2016.52,799.03 2013.06,800.463 2010.08,802.548C2007.1,804.631 2004.65,807.161 2002.76,810.137C2000.86,813.116 1999.58,816.415 1998.92,820.032C1998.27,823.653 1998.32,827.384 1999.09,831.232C1999.69,834.269 2000.74,836.925 2002.24,839.204C2003.74,841.488 2005.61,843.311 2007.87,844.686C2010.12,846.061 2012.7,846.946 2015.63,847.343C2018.55,847.739 2021.74,847.592 2025.21,846.902C2029.14,846.121 2032.6,844.688 2035.58,842.604C2038.57,840.521 2040.99,837.994 2042.84,835.027C2044.69,832.058 2045.94,828.766 2046.58,825.152C2047.21,821.534 2047.15,817.801 2046.38,813.958C2045.78,810.92 2044.73,808.264 2043.23,805.985ZM1994.78,830.316L1978.36,833.896L1980.31,842.82L1997.12,839.154C1996.31,837.333 1995.66,835.368 1995.24,833.218C1995.04,832.244 1994.9,831.277 1994.78,830.316ZM2035.7,823.582C2035.43,825.791 2034.81,827.824 2033.85,829.683C2032.88,831.543 2031.57,833.139 2029.9,834.47C2028.23,835.802 2026.22,836.701 2023.87,837.167C2021.99,837.543 2020.27,837.574 2018.72,837.259C2017.17,836.945 2015.8,836.375 2014.61,835.544C2013.42,834.714 2012.44,833.655 2011.64,832.368C2010.86,831.082 2010.31,829.645 2009.99,828.065C2009.56,825.886 2009.49,823.696 2009.79,821.504C2010.08,819.312 2010.72,817.284 2011.71,815.421C2012.69,813.558 2014.02,811.952 2015.68,810.599C2017.35,809.246 2019.33,808.338 2021.64,807.879C2023.48,807.515 2025.18,807.486 2026.76,807.793C2028.33,808.103 2029.7,808.674 2030.87,809.513C2032.03,810.347 2033.01,811.407 2033.8,812.693C2034.59,813.98 2035.14,815.418 2035.46,816.998C2035.89,819.177 2035.97,821.372 2035.7,823.582ZM2057.25,770.321C2055.89,768.832 2053.83,768.174 2051.86,768.604L2029.36,770.962L2026.37,757.216C2026.17,756.335 2025.31,755.777 2024.42,755.969C2023.55,756.161 2022.99,757.03 2023.18,757.911L2026.1,771.305L2025.78,771.339L2009.65,753.15C2005.82,748.836 1999.96,746.913 1994.32,748.141L1961.24,755.354L1977.19,828.505L1994.56,824.718C1994.62,823.223 1994.78,821.743 1995.05,820.28C1995.81,816.102 1997.28,812.292 1999.48,808.85C2001.66,805.413 2004.49,802.491 2007.93,800.084C2011.38,797.676 2015.38,796.021 2019.92,795.119C2023.87,794.33 2027.52,794.171 2030.87,794.634C2034.22,795.096 2037.19,796.124 2039.77,797.717C2042.34,799.308 2044.49,801.421 2046.23,804.055C2047.86,806.539 2049.01,809.426 2049.73,812.691L2071.14,808.024C2066.34,792.564 2057.25,770.321 2057.25,770.321ZM2072.68,813.335L2050.52,818.166C2050.69,820.894 2050.55,823.571 2050.09,826.195C2050.09,826.229 2050.08,826.26 2050.07,826.293C2050.01,826.747 2049.97,827.205 2049.89,827.652L2073.28,822.552C2074.55,822.275 2074.07,818.607 2072.68,813.335ZM1982.58,780.121C1977.91,781.14 1973.3,778.178 1972.28,773.506L1969.1,758.936L1994.06,753.495C1997,752.854 2000.15,753.701 2002.16,755.949C2002.17,755.977 2002.19,755.988 2002.19,756.002L2016.95,772.628L1982.58,780.121Z" style="fill:rgb(245,90,86);fill-rule:nonzero;"/>
            </g>
            <g transform="matrix(1,0,0,1,-1215,0)">
                <path d="M1472.91,1054.27C1471.6,1056.47 1470.02,1058.67 1468.15,1060.85C1466.29,1063.04 1464.07,1065.1 1461.48,1067.01C1458.89,1068.93 1455.97,1070.62 1452.7,1072.09C1449.43,1073.55 1445.74,1074.71 1441.64,1075.56C1435.59,1076.8 1429.97,1077.02 1424.77,1076.25C1419.57,1075.46 1414.94,1073.79 1410.89,1071.22C1406.84,1068.65 1403.41,1065.26 1400.62,1061.05C1397.82,1056.84 1395.85,1051.94 1394.71,1046.39C1393.21,1039.06 1393.08,1031.9 1394.34,1024.93C1395.59,1017.95 1398.01,1011.6 1401.58,1005.87C1405.14,1000.14 1409.74,995.267 1415.39,991.254C1421.03,987.24 1427.48,984.492 1434.73,983.003C1441.5,981.617 1447.83,981.556 1453.72,982.821C1459.6,984.092 1464.3,986.302 1467.8,989.44L1455.66,1005.79C1453.86,1003.97 1451.44,1002.54 1448.41,1001.48C1445.38,1000.43 1441.85,1000.31 1437.83,1001.13C1433.55,1002.01 1429.85,1003.72 1426.72,1006.25C1423.59,1008.78 1421.06,1011.82 1419.14,1015.36C1417.22,1018.9 1415.96,1022.77 1415.35,1026.97C1414.74,1031.17 1414.87,1035.37 1415.73,1039.55C1416.33,1042.45 1417.36,1045.12 1418.82,1047.55C1420.28,1049.98 1422.1,1051.98 1424.27,1053.55C1426.44,1055.12 1428.95,1056.2 1431.8,1056.79C1434.65,1057.38 1437.76,1057.33 1441.15,1056.63C1444.94,1055.86 1448.36,1054.31 1451.42,1052.01C1454.47,1049.7 1456.98,1046.79 1458.94,1043.28L1472.91,1054.27ZM1565.07,995.816C1563.89,990.091 1561.88,985.09 1559.03,980.806C1556.17,976.521 1552.63,973.09 1548.42,970.515C1544.19,967.938 1539.34,966.288 1533.86,965.566C1528.38,964.843 1522.41,965.137 1515.97,966.465C1508.55,967.984 1502.04,970.726 1496.44,974.694C1490.82,978.66 1486.24,983.461 1482.7,989.099C1479.15,994.743 1476.78,1000.98 1475.58,1007.82C1474.38,1014.65 1474.53,1021.7 1476.02,1028.95C1477.19,1034.67 1479.2,1039.67 1482.05,1043.96C1484.91,1048.25 1488.47,1051.67 1492.73,1054.24C1497,1056.81 1501.88,1058.45 1507.41,1059.17C1512.92,1059.88 1518.95,1059.57 1525.48,1058.23C1532.89,1056.71 1539.4,1053.96 1545.02,1050C1550.63,1046.03 1555.16,1041.24 1558.63,1035.62C1562.09,1029.99 1564.41,1023.76 1565.57,1016.94C1566.72,1010.1 1566.56,1003.06 1565.07,995.816ZM1657.86,1031.39L1657.01,965.389L1656.52,965.499L1635.31,1036.35L1621.13,1039.47L1597.6,978.458L1597.12,978.562L1598.94,1044.35L1580.03,1048.5L1578.24,956.475L1606.49,950.261L1627.41,1005.58L1627.89,1005.48L1645.9,941.599L1675.84,935.013L1677.62,1027.04L1657.86,1031.39ZM1545.02,1014.1C1544.53,1018.27 1543.39,1022.12 1541.59,1025.63C1539.79,1029.15 1537.33,1032.18 1534.19,1034.71C1531.06,1037.25 1527.28,1038.96 1522.85,1039.87C1519.3,1040.6 1516.06,1040.68 1513.13,1040.1C1510.2,1039.53 1507.61,1038.47 1505.36,1036.91C1503.11,1035.36 1501.23,1033.37 1499.73,1030.95C1498.23,1028.53 1497.17,1025.83 1496.55,1022.85C1495.71,1018.74 1495.56,1014.61 1496.09,1010.47C1496.63,1006.33 1497.81,1002.5 1499.65,998.97C1501.49,995.443 1503.97,992.396 1507.1,989.825C1510.22,987.252 1513.96,985.517 1518.31,984.624C1521.78,983.916 1524.99,983.843 1527.97,984.404C1530.93,984.972 1533.53,986.033 1535.74,987.603C1537.95,989.163 1539.8,991.153 1541.31,993.572C1542.82,995.992 1543.87,998.698 1544.49,1001.68C1545.33,1005.78 1545.5,1009.93 1545.02,1014.1ZM1721.78,925.993C1731.88,923.749 1740.04,924.208 1746.24,927.378C1752.44,930.557 1756.28,936.042 1757.76,943.853C1758.76,949.143 1758.73,953.923 1757.68,958.179C1756.63,962.435 1754.68,966.175 1751.84,969.391C1748.99,972.605 1745.35,975.318 1740.92,977.52C1736.5,979.73 1731.41,981.472 1725.66,982.753L1714.63,985.207L1715.21,1020.38L1695.19,1024.83L1693.51,932.274L1721.78,925.993ZM1821.98,998.818L1815.72,981.672L1782.6,989.053L1775.63,1009.15L1752.59,1014.29L1790.49,912.736L1810.14,908.354L1843.21,994.081L1821.98,998.818ZM2068.89,967.719L2068.18,968.816C2065.9,971.729 2063.98,973.469 2060.84,976C2057.71,978.533 2053.93,980.252 2049.49,981.159C2045.95,981.888 2042.71,981.967 2039.78,981.39C2036.85,980.815 2034.26,979.754 2032.01,978.199C2032,978.195 2032,978.191 2031.99,978.187C2030.92,977.444 2030.03,976.471 2029.28,975.398L2015.45,955.404L1990.48,922.112C1996.59,919.183 2001.09,915.126 2003.98,909.957C2006.87,904.788 2007.6,898.744 2006.17,891.811C2004.71,884.638 2000.92,879.599 1994.82,876.696C1988.73,873.786 1980.96,873.299 1971.54,875.239L1942.28,881.24L1944.62,974.892L1964.21,970.874L1963.05,930.258L1971.27,928.57L1992.72,960.07L2006.05,980.428C2006.84,982.112 2007.7,983.74 2008.7,985.247C2011.56,989.539 2015.12,992.958 2019.38,995.528C2023.64,998.097 2028.53,999.738 2034.06,1000.45C2039.57,1001.17 2045.6,1000.86 2052.13,999.514C2059.54,997.995 2066.05,995.252 2071.67,991.286C2077.28,987.32 2081.81,982.525 2085.28,976.904C2088.74,971.281 2090.68,967.569 2091.13,963.245L2068.89,967.719ZM1849.23,900.985L1881,893.987C1885.85,892.915 1890.81,892.543 1895.89,892.857C1900.95,893.179 1905.7,894.42 1910.11,896.584C1914.53,898.751 1918.39,901.927 1921.72,906.114C1925.05,910.309 1927.34,915.746 1928.62,922.434C1930.1,930.21 1930.13,937.569 1928.72,944.497C1927.3,951.433 1924.67,957.655 1920.84,963.157C1917.01,968.669 1912.12,973.338 1906.2,977.17C1900.28,981.003 1893.56,983.749 1886.04,985.401L1851,993.124L1849.23,900.985ZM1800.02,934.541L1788.03,970.22L1810.47,965.218L1800.02,934.541ZM1870.47,970.018L1883.44,967.158C1888.45,966.053 1892.72,964.217 1896.23,961.655C1899.75,959.102 1902.5,956.093 1904.5,952.646C1906.49,949.199 1907.79,945.477 1908.37,941.468C1908.95,937.468 1908.87,933.497 1908.12,929.566C1907.55,926.558 1906.54,923.792 1905.09,921.283C1903.64,918.771 1901.75,916.725 1899.43,915.145C1897.12,913.564 1894.37,912.513 1891.19,911.992C1888.02,911.473 1884.41,911.658 1880.37,912.548L1869.34,914.978L1870.47,970.018ZM1722.89,966.045C1728.15,964.875 1732.17,963.082 1734.95,960.657C1737.74,958.233 1738.72,954.822 1737.89,950.433C1737.52,948.489 1736.87,946.938 1735.94,945.78C1735.01,944.623 1733.86,943.8 1732.5,943.313C1731.14,942.818 1729.59,942.614 1727.83,942.697C1726.08,942.782 1724.19,943.04 1722.17,943.496L1713.93,945.324L1714.28,967.952L1722.89,966.045ZM2148.29,896.482C2146.77,893.988 2144.81,891.868 2142.43,890.12C2140.03,888.378 2137.24,886.952 2134.03,885.854C2130.83,884.751 2127.25,883.885 2123.3,883.243C2119.67,882.62 2116.78,881.75 2114.62,880.621C2112.46,879.497 2111.16,877.642 2110.72,875.073C2110.38,873.106 2110.52,871.35 2111.13,869.818C2111.75,868.279 2112.6,866.941 2113.7,865.793C2114.8,864.651 2116.08,863.734 2117.55,863.047C2119.03,862.36 2120.45,861.883 2121.83,861.615C2125.32,860.93 2128.57,861.147 2131.58,862.24C2133.2,862.827 2134.65,863.815 2136.06,864.832C2136.64,865.244 2137.37,865.206 2137.93,864.815L2137.9,864.853L2152,854.592C2150.74,852.104 2148.75,850.376 2148.75,850.376C2147.05,848.764 2145.07,847.427 2142.79,846.359C2140.51,845.299 2138.1,844.515 2135.55,843.995C2132.99,843.481 2130.37,843.215 2127.69,843.205C2125.01,843.202 2122.41,843.44 2119.91,843.934C2115.14,844.866 2110.76,846.454 2106.8,848.686C2102.83,850.923 2099.5,853.659 2096.79,856.885C2094.09,860.111 2092.14,863.767 2090.96,867.846C2089.79,871.934 2089.6,876.283 2090.39,880.912C2091.03,884.597 2092.12,887.636 2093.66,890.028C2095.2,892.429 2097.05,894.394 2099.19,895.922C2101.33,897.45 2103.75,898.616 2106.44,899.414C2109.13,900.22 2111.98,900.859 2114.99,901.33C2119.55,902.036 2123.25,903.139 2126.06,904.636C2128.22,905.787 2129.8,907.954 2130.35,910.449C2130.85,912.72 2130.8,914.727 2130.21,916.478L2129.88,917.458C2129.44,918.747 2128.39,919.694 2127.12,919.946L2081.18,929.066L2042.09,936.708L2041.88,916.566L2075.87,909.919L2075.82,892.135L2041.83,898.78L2041.71,880.613L2077.4,873.635L2077.29,854.798L2022.3,865.551L2022.79,957.308C2022.79,958.434 2023.76,959.28 2024.81,959.075L2130.75,937.291C2130.75,937.291 2138.07,936.516 2143.96,931.054C2147.1,928.141 2149.16,924.26 2150.64,919.99C2152.13,915.712 2152.39,910.841 2151.45,905.352C2150.86,901.933 2149.8,898.966 2148.29,896.482ZM1983.71,908.155C1981.08,910.528 1977.08,912.264 1971.68,913.378L1962.74,915.206L1962.22,894.278L1970.8,892.516C1974.99,891.66 1978.47,891.616 1981.23,892.38C1983.99,893.153 1985.73,895.296 1986.46,898.82C1987.24,902.669 1986.33,905.782 1983.71,908.155ZM1516.29,869.966L1516.16,798.742L1531.52,795.653L1531.56,852.046L1557.13,847.484L1557.12,861.753L1516.29,869.966ZM1626.06,807.352C1625.29,802.999 1623.86,799.175 1621.79,795.874C1619.71,792.577 1617.1,789.911 1613.95,787.878C1610.81,785.846 1607.17,784.503 1603.03,783.848C1598.9,783.195 1594.38,783.305 1589.48,784.18C1583.83,785.187 1578.85,787.136 1574.53,790.026C1570.21,792.918 1566.65,796.462 1563.86,800.661C1561.06,804.861 1559.14,809.536 1558.1,814.688C1557.06,819.841 1557.03,825.175 1558.02,830.692C1558.79,835.046 1560.22,838.872 1562.3,842.169C1564.37,845.469 1566.99,848.132 1570.17,850.158C1573.35,852.187 1577.02,853.524 1581.18,854.171C1585.35,854.819 1589.91,854.701 1594.88,853.815C1600.52,852.809 1605.5,850.859 1609.83,847.969C1614.15,845.079 1617.68,841.539 1620.41,837.35C1623.14,833.163 1625.01,828.496 1626.02,823.349C1627.04,818.203 1627.05,812.871 1626.06,807.352ZM1670.1,786.511C1668.58,785.075 1666.82,784.092 1664.83,783.561C1662.84,783.032 1660.71,782.969 1658.44,783.373C1657.4,783.559 1656.32,783.893 1655.2,784.378C1654.09,784.861 1653.11,785.51 1652.28,786.324C1651.44,787.137 1650.79,788.092 1650.32,789.186C1649.85,790.284 1649.74,791.537 1650,792.946C1650.32,794.785 1651.3,796.114 1652.94,796.929C1654.57,797.746 1656.75,798.383 1659.49,798.842C1662.49,799.32 1665.19,799.961 1667.62,800.762C1670.04,801.564 1672.15,802.595 1673.96,803.854C1675.76,805.112 1677.24,806.636 1678.38,808.425C1679.52,810.214 1680.31,812.335 1680.75,814.787C1681.45,818.711 1681.23,822.197 1680.1,825.247C1678.96,828.295 1677.27,830.922 1675.01,833.13C1672.74,835.336 1670.09,837.124 1667.04,838.489C1663.99,839.853 1660.91,840.816 1657.78,841.374C1655.45,841.79 1653.09,841.99 1650.68,841.978C1648.27,841.964 1645.92,841.735 1643.63,841.29C1641.34,840.846 1639.15,840.143 1637.08,839.184C1635.02,838.225 1633.19,837.033 1631.61,835.607L1641.28,824.391C1642.91,826.125 1645.1,827.381 1647.83,828.157C1650.56,828.935 1653.22,829.094 1655.8,828.634C1657.14,828.394 1658.42,828.023 1659.63,827.522C1660.84,827.023 1661.87,826.363 1662.74,825.545C1663.6,824.725 1664.24,823.759 1664.64,822.642C1665.04,821.527 1665.12,820.266 1664.87,818.855C1664.46,816.588 1663.22,814.959 1661.15,813.968C1659.07,812.979 1656.41,812.236 1653.16,811.74C1650.88,811.386 1648.73,810.917 1646.69,810.331C1644.66,809.746 1642.83,808.902 1641.21,807.798C1639.59,806.696 1638.2,805.283 1637.04,803.561C1635.88,801.839 1635.06,799.66 1634.59,797.024C1634,793.712 1634.16,790.601 1635.06,787.688C1635.97,784.775 1637.44,782.17 1639.5,779.873C1641.56,777.578 1644.09,775.638 1647.1,774.058C1650.1,772.478 1653.42,771.365 1657.04,770.719C1658.93,770.38 1660.9,770.219 1662.93,770.237C1664.96,770.254 1666.94,770.455 1668.87,770.837C1670.8,771.219 1672.63,771.795 1674.35,772.563C1676.07,773.333 1677.57,774.299 1678.85,775.461L1670.1,786.511ZM1610.53,820.799C1610.08,823.949 1609.14,826.837 1607.71,829.463C1606.28,832.09 1604.36,834.332 1601.93,836.187C1599.52,838.043 1596.62,839.272 1593.25,839.873C1590.55,840.354 1588.1,840.35 1585.89,839.857C1583.68,839.366 1581.74,838.51 1580.07,837.289C1578.39,836.07 1577.02,834.529 1575.92,832.668C1574.83,830.807 1574.09,828.743 1573.68,826.474C1573.12,823.347 1573.09,820.222 1573.57,817.099C1574.06,813.975 1575.03,811.098 1576.49,808.465C1577.95,805.832 1579.89,803.574 1582.3,801.687C1584.72,799.8 1587.58,798.562 1590.89,797.971C1593.53,797.501 1595.96,797.509 1598.2,797.995C1600.44,798.483 1602.38,799.336 1604.02,800.563C1605.66,801.788 1607.03,803.332 1608.12,805.192C1609.22,807.054 1609.96,809.12 1610.37,811.387C1610.92,814.513 1610.98,817.652 1610.53,820.799Z" style="fill:rgb(13,63,106);fill-rule:nonzero;"/>
            </g>
        </g>
    </g>
</svg>
